<?xml version="1.0" encoding="utf-8"?>
<svg xmlns="http://www.w3.org/2000/svg" xmlns:xlink="http://www.w3.org/1999/xlink" width="600" height="400" viewBox="0 0 2400 1600">
<defs>
  <clipPath id="clip780">
    <rect x="0" y="0" width="2400" height="1600"/>
  </clipPath>
</defs>
<path clip-path="url(#clip780)" d="M0 1600 L2400 1600 L2400 0 L0 0  Z" fill="#ffffff" fill-rule="evenodd" fill-opacity="1"/>
<defs>
  <clipPath id="clip781">
    <rect x="480" y="0" width="1681" height="1600"/>
  </clipPath>
</defs>
<path clip-path="url(#clip780)" d="M276.599 1392.94 L1611.12 1392.94 L1611.12 47.2441 L276.599 47.2441  Z" fill="#ffffff" fill-rule="evenodd" fill-opacity="1"/>
<defs>
  <clipPath id="clip782">
    <rect x="276" y="47" width="1336" height="1347"/>
  </clipPath>
</defs>
<polyline clip-path="url(#clip782)" style="stroke:#000000; stroke-linecap:round; stroke-linejoin:round; stroke-width:2; stroke-opacity:0.1; fill:none" points="301.652,1392.94 301.652,47.2441 "/>
<polyline clip-path="url(#clip782)" style="stroke:#000000; stroke-linecap:round; stroke-linejoin:round; stroke-width:2; stroke-opacity:0.1; fill:none" points="619.576,1392.94 619.576,47.2441 "/>
<polyline clip-path="url(#clip782)" style="stroke:#000000; stroke-linecap:round; stroke-linejoin:round; stroke-width:2; stroke-opacity:0.1; fill:none" points="937.501,1392.94 937.501,47.2441 "/>
<polyline clip-path="url(#clip782)" style="stroke:#000000; stroke-linecap:round; stroke-linejoin:round; stroke-width:2; stroke-opacity:0.1; fill:none" points="1255.43,1392.94 1255.43,47.2441 "/>
<polyline clip-path="url(#clip782)" style="stroke:#000000; stroke-linecap:round; stroke-linejoin:round; stroke-width:2; stroke-opacity:0.1; fill:none" points="1573.35,1392.94 1573.35,47.2441 "/>
<polyline clip-path="url(#clip782)" style="stroke:#000000; stroke-linecap:round; stroke-linejoin:round; stroke-width:2; stroke-opacity:0.05; fill:none" points="365.237,1392.94 365.237,47.2441 "/>
<polyline clip-path="url(#clip782)" style="stroke:#000000; stroke-linecap:round; stroke-linejoin:round; stroke-width:2; stroke-opacity:0.05; fill:none" points="428.822,1392.94 428.822,47.2441 "/>
<polyline clip-path="url(#clip782)" style="stroke:#000000; stroke-linecap:round; stroke-linejoin:round; stroke-width:2; stroke-opacity:0.05; fill:none" points="492.406,1392.94 492.406,47.2441 "/>
<polyline clip-path="url(#clip782)" style="stroke:#000000; stroke-linecap:round; stroke-linejoin:round; stroke-width:2; stroke-opacity:0.05; fill:none" points="555.991,1392.94 555.991,47.2441 "/>
<polyline clip-path="url(#clip782)" style="stroke:#000000; stroke-linecap:round; stroke-linejoin:round; stroke-width:2; stroke-opacity:0.05; fill:none" points="683.161,1392.94 683.161,47.2441 "/>
<polyline clip-path="url(#clip782)" style="stroke:#000000; stroke-linecap:round; stroke-linejoin:round; stroke-width:2; stroke-opacity:0.05; fill:none" points="746.746,1392.94 746.746,47.2441 "/>
<polyline clip-path="url(#clip782)" style="stroke:#000000; stroke-linecap:round; stroke-linejoin:round; stroke-width:2; stroke-opacity:0.05; fill:none" points="810.331,1392.94 810.331,47.2441 "/>
<polyline clip-path="url(#clip782)" style="stroke:#000000; stroke-linecap:round; stroke-linejoin:round; stroke-width:2; stroke-opacity:0.05; fill:none" points="873.916,1392.94 873.916,47.2441 "/>
<polyline clip-path="url(#clip782)" style="stroke:#000000; stroke-linecap:round; stroke-linejoin:round; stroke-width:2; stroke-opacity:0.05; fill:none" points="1001.09,1392.94 1001.09,47.2441 "/>
<polyline clip-path="url(#clip782)" style="stroke:#000000; stroke-linecap:round; stroke-linejoin:round; stroke-width:2; stroke-opacity:0.05; fill:none" points="1064.67,1392.94 1064.67,47.2441 "/>
<polyline clip-path="url(#clip782)" style="stroke:#000000; stroke-linecap:round; stroke-linejoin:round; stroke-width:2; stroke-opacity:0.05; fill:none" points="1128.26,1392.94 1128.26,47.2441 "/>
<polyline clip-path="url(#clip782)" style="stroke:#000000; stroke-linecap:round; stroke-linejoin:round; stroke-width:2; stroke-opacity:0.05; fill:none" points="1191.84,1392.94 1191.84,47.2441 "/>
<polyline clip-path="url(#clip782)" style="stroke:#000000; stroke-linecap:round; stroke-linejoin:round; stroke-width:2; stroke-opacity:0.05; fill:none" points="1319.01,1392.94 1319.01,47.2441 "/>
<polyline clip-path="url(#clip782)" style="stroke:#000000; stroke-linecap:round; stroke-linejoin:round; stroke-width:2; stroke-opacity:0.05; fill:none" points="1382.6,1392.94 1382.6,47.2441 "/>
<polyline clip-path="url(#clip782)" style="stroke:#000000; stroke-linecap:round; stroke-linejoin:round; stroke-width:2; stroke-opacity:0.05; fill:none" points="1446.18,1392.94 1446.18,47.2441 "/>
<polyline clip-path="url(#clip782)" style="stroke:#000000; stroke-linecap:round; stroke-linejoin:round; stroke-width:2; stroke-opacity:0.05; fill:none" points="1509.77,1392.94 1509.77,47.2441 "/>
<polyline clip-path="url(#clip780)" style="stroke:#000000; stroke-linecap:round; stroke-linejoin:round; stroke-width:4; stroke-opacity:1; fill:none" points="276.599,1392.94 1611.12,1392.94 "/>
<polyline clip-path="url(#clip780)" style="stroke:#000000; stroke-linecap:round; stroke-linejoin:round; stroke-width:4; stroke-opacity:1; fill:none" points="301.652,1392.94 301.652,1374.04 "/>
<polyline clip-path="url(#clip780)" style="stroke:#000000; stroke-linecap:round; stroke-linejoin:round; stroke-width:4; stroke-opacity:1; fill:none" points="619.576,1392.94 619.576,1374.04 "/>
<polyline clip-path="url(#clip780)" style="stroke:#000000; stroke-linecap:round; stroke-linejoin:round; stroke-width:4; stroke-opacity:1; fill:none" points="937.501,1392.94 937.501,1374.04 "/>
<polyline clip-path="url(#clip780)" style="stroke:#000000; stroke-linecap:round; stroke-linejoin:round; stroke-width:4; stroke-opacity:1; fill:none" points="1255.43,1392.94 1255.43,1374.04 "/>
<polyline clip-path="url(#clip780)" style="stroke:#000000; stroke-linecap:round; stroke-linejoin:round; stroke-width:4; stroke-opacity:1; fill:none" points="1573.35,1392.94 1573.35,1374.04 "/>
<polyline clip-path="url(#clip780)" style="stroke:#000000; stroke-linecap:round; stroke-linejoin:round; stroke-width:4; stroke-opacity:1; fill:none" points="365.237,1392.94 365.237,1383.49 "/>
<polyline clip-path="url(#clip780)" style="stroke:#000000; stroke-linecap:round; stroke-linejoin:round; stroke-width:4; stroke-opacity:1; fill:none" points="428.822,1392.94 428.822,1383.49 "/>
<polyline clip-path="url(#clip780)" style="stroke:#000000; stroke-linecap:round; stroke-linejoin:round; stroke-width:4; stroke-opacity:1; fill:none" points="492.406,1392.94 492.406,1383.49 "/>
<polyline clip-path="url(#clip780)" style="stroke:#000000; stroke-linecap:round; stroke-linejoin:round; stroke-width:4; stroke-opacity:1; fill:none" points="555.991,1392.94 555.991,1383.49 "/>
<polyline clip-path="url(#clip780)" style="stroke:#000000; stroke-linecap:round; stroke-linejoin:round; stroke-width:4; stroke-opacity:1; fill:none" points="683.161,1392.94 683.161,1383.49 "/>
<polyline clip-path="url(#clip780)" style="stroke:#000000; stroke-linecap:round; stroke-linejoin:round; stroke-width:4; stroke-opacity:1; fill:none" points="746.746,1392.94 746.746,1383.49 "/>
<polyline clip-path="url(#clip780)" style="stroke:#000000; stroke-linecap:round; stroke-linejoin:round; stroke-width:4; stroke-opacity:1; fill:none" points="810.331,1392.94 810.331,1383.49 "/>
<polyline clip-path="url(#clip780)" style="stroke:#000000; stroke-linecap:round; stroke-linejoin:round; stroke-width:4; stroke-opacity:1; fill:none" points="873.916,1392.94 873.916,1383.49 "/>
<polyline clip-path="url(#clip780)" style="stroke:#000000; stroke-linecap:round; stroke-linejoin:round; stroke-width:4; stroke-opacity:1; fill:none" points="1001.09,1392.94 1001.09,1383.49 "/>
<polyline clip-path="url(#clip780)" style="stroke:#000000; stroke-linecap:round; stroke-linejoin:round; stroke-width:4; stroke-opacity:1; fill:none" points="1064.67,1392.94 1064.67,1383.49 "/>
<polyline clip-path="url(#clip780)" style="stroke:#000000; stroke-linecap:round; stroke-linejoin:round; stroke-width:4; stroke-opacity:1; fill:none" points="1128.26,1392.94 1128.26,1383.49 "/>
<polyline clip-path="url(#clip780)" style="stroke:#000000; stroke-linecap:round; stroke-linejoin:round; stroke-width:4; stroke-opacity:1; fill:none" points="1191.84,1392.94 1191.84,1383.49 "/>
<polyline clip-path="url(#clip780)" style="stroke:#000000; stroke-linecap:round; stroke-linejoin:round; stroke-width:4; stroke-opacity:1; fill:none" points="1319.01,1392.94 1319.01,1383.49 "/>
<polyline clip-path="url(#clip780)" style="stroke:#000000; stroke-linecap:round; stroke-linejoin:round; stroke-width:4; stroke-opacity:1; fill:none" points="1382.6,1392.94 1382.6,1383.49 "/>
<polyline clip-path="url(#clip780)" style="stroke:#000000; stroke-linecap:round; stroke-linejoin:round; stroke-width:4; stroke-opacity:1; fill:none" points="1446.18,1392.94 1446.18,1383.49 "/>
<polyline clip-path="url(#clip780)" style="stroke:#000000; stroke-linecap:round; stroke-linejoin:round; stroke-width:4; stroke-opacity:1; fill:none" points="1509.77,1392.94 1509.77,1383.49 "/>
<path clip-path="url(#clip780)" d="M301.652 1431.18 Q295.784 1431.18 292.812 1436.98 Q289.878 1442.73 289.878 1454.32 Q289.878 1465.86 292.812 1471.66 Q295.784 1477.41 301.652 1477.41 Q307.557 1477.41 310.491 1471.66 Q313.463 1465.86 313.463 1454.32 Q313.463 1442.73 310.491 1436.98 Q307.557 1431.18 301.652 1431.18 M301.652 1425.16 Q311.093 1425.16 316.058 1432.65 Q321.061 1440.1 321.061 1454.32 Q321.061 1468.5 316.058 1475.98 Q311.093 1483.43 301.652 1483.43 Q292.21 1483.43 287.207 1475.98 Q282.242 1468.5 282.242 1454.32 Q282.242 1440.1 287.207 1432.65 Q292.21 1425.16 301.652 1425.16 Z" fill="#000000" fill-rule="nonzero" fill-opacity="1" /><path clip-path="url(#clip780)" d="M585.892 1475.95 L612.411 1475.95 L612.411 1482.34 L576.751 1482.34 L576.751 1475.95 Q581.077 1471.47 588.525 1463.95 Q596.01 1456.39 597.929 1454.2 Q601.577 1450.1 603.007 1447.28 Q604.474 1444.42 604.474 1441.68 Q604.474 1437.2 601.314 1434.38 Q598.192 1431.56 593.151 1431.56 Q589.578 1431.56 585.591 1432.8 Q581.641 1434.04 577.127 1436.56 L577.127 1428.89 Q581.716 1427.04 585.704 1426.1 Q589.691 1425.16 593.001 1425.16 Q601.728 1425.16 606.919 1429.53 Q612.11 1433.89 612.11 1441.19 Q612.11 1444.65 610.793 1447.77 Q609.514 1450.86 606.091 1455.07 Q605.151 1456.16 600.11 1461.39 Q595.07 1466.58 585.892 1475.95 Z" fill="#000000" fill-rule="nonzero" fill-opacity="1" /><path clip-path="url(#clip780)" d="M628.435 1426.18 L658.264 1426.18 L658.264 1432.57 L635.394 1432.57 L635.394 1446.34 Q637.049 1445.78 638.704 1445.51 Q640.359 1445.21 642.014 1445.21 Q651.418 1445.21 656.91 1450.37 Q662.402 1455.52 662.402 1464.32 Q662.402 1473.39 656.759 1478.43 Q651.117 1483.43 640.848 1483.43 Q637.312 1483.43 633.626 1482.83 Q629.977 1482.23 626.065 1481.02 L626.065 1473.39 Q629.45 1475.23 633.061 1476.13 Q636.673 1477.04 640.697 1477.04 Q647.205 1477.04 651.004 1473.61 Q654.803 1470.19 654.803 1464.32 Q654.803 1458.45 651.004 1455.03 Q647.205 1451.61 640.697 1451.61 Q637.651 1451.61 634.604 1452.29 Q631.594 1452.96 628.435 1454.39 L628.435 1426.18 Z" fill="#000000" fill-rule="nonzero" fill-opacity="1" /><path clip-path="url(#clip780)" d="M896.387 1426.18 L926.216 1426.18 L926.216 1432.57 L903.346 1432.57 L903.346 1446.34 Q905.001 1445.78 906.656 1445.51 Q908.311 1445.21 909.966 1445.21 Q919.37 1445.21 924.862 1450.37 Q930.354 1455.52 930.354 1464.32 Q930.354 1473.39 924.712 1478.43 Q919.069 1483.43 908.8 1483.43 Q905.264 1483.43 901.578 1482.83 Q897.929 1482.23 894.017 1481.02 L894.017 1473.39 Q897.403 1475.23 901.014 1476.13 Q904.625 1477.04 908.65 1477.04 Q915.157 1477.04 918.957 1473.61 Q922.756 1470.19 922.756 1464.32 Q922.756 1458.45 918.957 1455.03 Q915.157 1451.61 908.65 1451.61 Q905.603 1451.61 902.556 1452.29 Q899.547 1452.96 896.387 1454.39 L896.387 1426.18 Z" fill="#000000" fill-rule="nonzero" fill-opacity="1" /><path clip-path="url(#clip780)" d="M961.575 1431.18 Q955.707 1431.18 952.735 1436.98 Q949.801 1442.73 949.801 1454.32 Q949.801 1465.86 952.735 1471.66 Q955.707 1477.41 961.575 1477.41 Q967.481 1477.41 970.415 1471.66 Q973.386 1465.86 973.386 1454.32 Q973.386 1442.73 970.415 1436.98 Q967.481 1431.18 961.575 1431.18 M961.575 1425.16 Q971.016 1425.16 975.982 1432.65 Q980.985 1440.1 980.985 1454.32 Q980.985 1468.5 975.982 1475.98 Q971.016 1483.43 961.575 1483.43 Q952.133 1483.43 947.131 1475.98 Q942.165 1468.5 942.165 1454.32 Q942.165 1440.1 947.131 1432.65 Q952.133 1425.16 961.575 1425.16 Z" fill="#000000" fill-rule="nonzero" fill-opacity="1" /><path clip-path="url(#clip780)" d="M1212.94 1426.18 L1249.05 1426.18 L1249.05 1429.41 L1228.66 1482.34 L1220.73 1482.34 L1239.91 1432.57 L1212.94 1432.57 L1212.94 1426.18 Z" fill="#000000" fill-rule="nonzero" fill-opacity="1" /><path clip-path="url(#clip780)" d="M1263.95 1426.18 L1293.77 1426.18 L1293.77 1432.57 L1270.9 1432.57 L1270.9 1446.34 Q1272.56 1445.78 1274.21 1445.51 Q1275.87 1445.21 1277.52 1445.21 Q1286.93 1445.21 1292.42 1450.37 Q1297.91 1455.52 1297.91 1464.32 Q1297.91 1473.39 1292.27 1478.43 Q1286.63 1483.43 1276.36 1483.43 Q1272.82 1483.43 1269.14 1482.83 Q1265.49 1482.23 1261.58 1481.02 L1261.58 1473.39 Q1264.96 1475.23 1268.57 1476.13 Q1272.18 1477.04 1276.21 1477.04 Q1282.72 1477.04 1286.51 1473.61 Q1290.31 1470.19 1290.31 1464.32 Q1290.31 1458.45 1286.51 1455.03 Q1282.72 1451.61 1276.21 1451.61 Q1273.16 1451.61 1270.11 1452.29 Q1267.11 1452.96 1263.95 1454.39 L1263.95 1426.18 Z" fill="#000000" fill-rule="nonzero" fill-opacity="1" /><path clip-path="url(#clip780)" d="M1507.71 1475.95 L1520.12 1475.95 L1520.12 1433.1 L1506.62 1435.81 L1506.62 1428.89 L1520.05 1426.18 L1527.65 1426.18 L1527.65 1475.95 L1540.06 1475.95 L1540.06 1482.34 L1507.71 1482.34 L1507.71 1475.95 Z" fill="#000000" fill-rule="nonzero" fill-opacity="1" /><path clip-path="url(#clip780)" d="M1571.66 1431.18 Q1565.79 1431.18 1562.82 1436.98 Q1559.88 1442.73 1559.88 1454.32 Q1559.88 1465.86 1562.82 1471.66 Q1565.79 1477.41 1571.66 1477.41 Q1577.56 1477.41 1580.5 1471.66 Q1583.47 1465.86 1583.47 1454.32 Q1583.47 1442.73 1580.5 1436.98 Q1577.56 1431.18 1571.66 1431.18 M1571.66 1425.16 Q1581.1 1425.16 1586.06 1432.65 Q1591.07 1440.1 1591.07 1454.32 Q1591.07 1468.5 1586.06 1475.98 Q1581.1 1483.43 1571.66 1483.43 Q1562.22 1483.43 1557.21 1475.98 Q1552.25 1468.5 1552.25 1454.32 Q1552.25 1440.1 1557.21 1432.65 Q1562.22 1425.16 1571.66 1425.16 Z" fill="#000000" fill-rule="nonzero" fill-opacity="1" /><path clip-path="url(#clip780)" d="M1620.67 1431.18 Q1614.8 1431.18 1611.83 1436.98 Q1608.9 1442.73 1608.9 1454.32 Q1608.9 1465.86 1611.83 1471.66 Q1614.8 1477.41 1620.67 1477.41 Q1626.58 1477.41 1629.51 1471.66 Q1632.48 1465.86 1632.48 1454.32 Q1632.48 1442.73 1629.51 1436.98 Q1626.58 1431.18 1620.67 1431.18 M1620.67 1425.16 Q1630.11 1425.16 1635.08 1432.65 Q1640.08 1440.1 1640.08 1454.32 Q1640.08 1468.5 1635.08 1475.98 Q1630.11 1483.43 1620.67 1483.43 Q1611.23 1483.43 1606.23 1475.98 Q1601.26 1468.5 1601.26 1454.32 Q1601.26 1440.1 1606.23 1432.65 Q1611.23 1425.16 1620.67 1425.16 Z" fill="#000000" fill-rule="nonzero" fill-opacity="1" /><path clip-path="url(#clip780)" d="M541.392 1524.41 L551.623 1524.41 L576.525 1571.39 L576.525 1524.41 L583.898 1524.41 L583.898 1580.57 L573.666 1580.57 L548.765 1533.59 L548.765 1580.57 L541.392 1580.57 L541.392 1524.41 Z" fill="#000000" fill-rule="nonzero" fill-opacity="1" /><path clip-path="url(#clip780)" d="M598.003 1563.95 L598.003 1538.44 L604.925 1538.44 L604.925 1563.68 Q604.925 1569.66 607.257 1572.67 Q609.589 1575.64 614.253 1575.64 Q619.858 1575.64 623.093 1572.07 Q626.366 1568.5 626.366 1562.33 L626.366 1538.44 L633.287 1538.44 L633.287 1580.57 L626.366 1580.57 L626.366 1574.1 Q623.845 1577.94 620.498 1579.82 Q617.187 1581.66 612.786 1581.66 Q605.527 1581.66 601.765 1577.15 Q598.003 1572.63 598.003 1563.95 M615.419 1537.43 L615.419 1537.43 Z" fill="#000000" fill-rule="nonzero" fill-opacity="1" /><path clip-path="url(#clip780)" d="M680.344 1546.53 Q682.939 1541.87 686.55 1539.65 Q690.161 1537.43 695.052 1537.43 Q701.634 1537.43 705.208 1542.05 Q708.781 1546.64 708.781 1555.14 L708.781 1580.57 L701.822 1580.57 L701.822 1555.37 Q701.822 1549.31 699.678 1546.38 Q697.534 1543.45 693.133 1543.45 Q687.754 1543.45 684.632 1547.02 Q681.51 1550.59 681.51 1556.76 L681.51 1580.57 L674.551 1580.57 L674.551 1555.37 Q674.551 1549.28 672.407 1546.38 Q670.263 1543.45 665.787 1543.45 Q660.483 1543.45 657.361 1547.06 Q654.239 1550.63 654.239 1556.76 L654.239 1580.57 L647.28 1580.57 L647.28 1538.44 L654.239 1538.44 L654.239 1544.99 Q656.608 1541.11 659.919 1539.27 Q663.229 1537.43 667.78 1537.43 Q672.369 1537.43 675.567 1539.76 Q678.802 1542.09 680.344 1546.53 Z" fill="#000000" fill-rule="nonzero" fill-opacity="1" /><path clip-path="url(#clip780)" d="M752.829 1559.54 Q752.829 1551.91 749.669 1547.58 Q746.547 1543.22 741.055 1543.22 Q735.563 1543.22 732.404 1547.58 Q729.282 1551.91 729.282 1559.54 Q729.282 1567.18 732.404 1571.54 Q735.563 1575.87 741.055 1575.87 Q746.547 1575.87 749.669 1571.54 Q752.829 1567.18 752.829 1559.54 M729.282 1544.84 Q731.463 1541.08 734.774 1539.27 Q738.121 1537.43 742.748 1537.43 Q750.422 1537.43 755.199 1543.52 Q760.014 1549.61 760.014 1559.54 Q760.014 1569.48 755.199 1575.57 Q750.422 1581.66 742.748 1581.66 Q738.121 1581.66 734.774 1579.86 Q731.463 1578.01 729.282 1574.25 L729.282 1580.57 L722.323 1580.57 L722.323 1522.04 L729.282 1522.04 L729.282 1544.84 Z" fill="#000000" fill-rule="nonzero" fill-opacity="1" /><path clip-path="url(#clip780)" d="M807.522 1557.78 L807.522 1561.16 L775.699 1561.16 Q776.151 1568.31 779.987 1572.07 Q783.862 1575.79 790.745 1575.79 Q794.733 1575.79 798.457 1574.82 Q802.218 1573.84 805.904 1571.88 L805.904 1578.43 Q802.181 1580.01 798.269 1580.84 Q794.357 1581.66 790.332 1581.66 Q780.251 1581.66 774.345 1575.79 Q768.477 1569.93 768.477 1559.92 Q768.477 1549.58 774.044 1543.52 Q779.649 1537.43 789.128 1537.43 Q797.629 1537.43 802.557 1542.92 Q807.522 1548.37 807.522 1557.78 M800.601 1555.75 Q800.525 1550.07 797.403 1546.68 Q794.319 1543.29 789.203 1543.29 Q783.41 1543.29 779.912 1546.57 Q776.452 1549.84 775.925 1555.78 L800.601 1555.75 Z" fill="#000000" fill-rule="nonzero" fill-opacity="1" /><path clip-path="url(#clip780)" d="M843.294 1544.91 Q842.128 1544.24 840.736 1543.93 Q839.382 1543.6 837.727 1543.6 Q831.859 1543.6 828.7 1547.43 Q825.577 1551.23 825.577 1558.38 L825.577 1580.57 L818.619 1580.57 L818.619 1538.44 L825.577 1538.44 L825.577 1544.99 Q827.759 1541.15 831.257 1539.31 Q834.756 1537.43 839.758 1537.43 Q840.473 1537.43 841.338 1537.54 Q842.203 1537.61 843.257 1537.8 L843.294 1544.91 Z" fill="#000000" fill-rule="nonzero" fill-opacity="1" /><path clip-path="url(#clip780)" d="M891.367 1543.29 Q885.8 1543.29 882.565 1547.66 Q879.33 1551.98 879.33 1559.54 Q879.33 1567.11 882.527 1571.47 Q885.762 1575.79 891.367 1575.79 Q896.896 1575.79 900.131 1571.43 Q903.366 1567.07 903.366 1559.54 Q903.366 1552.06 900.131 1547.7 Q896.896 1543.29 891.367 1543.29 M891.367 1537.43 Q900.395 1537.43 905.548 1543.29 Q910.701 1549.16 910.701 1559.54 Q910.701 1569.89 905.548 1575.79 Q900.395 1581.66 891.367 1581.66 Q882.302 1581.66 877.148 1575.79 Q872.033 1569.89 872.033 1559.54 Q872.033 1549.16 877.148 1543.29 Q882.302 1537.43 891.367 1537.43 Z" fill="#000000" fill-rule="nonzero" fill-opacity="1" /><path clip-path="url(#clip780)" d="M943.502 1522.04 L943.502 1527.8 L936.882 1527.8 Q933.158 1527.8 931.691 1529.3 Q930.261 1530.81 930.261 1534.72 L930.261 1538.44 L941.659 1538.44 L941.659 1543.82 L930.261 1543.82 L930.261 1580.57 L923.303 1580.57 L923.303 1543.82 L916.682 1543.82 L916.682 1538.44 L923.303 1538.44 L923.303 1535.51 Q923.303 1528.47 926.575 1525.28 Q929.848 1522.04 936.957 1522.04 L943.502 1522.04 Z" fill="#000000" fill-rule="nonzero" fill-opacity="1" /><path clip-path="url(#clip780)" d="M980.478 1574.25 L980.478 1596.6 L973.519 1596.6 L973.519 1538.44 L980.478 1538.44 L980.478 1544.84 Q982.66 1541.08 985.97 1539.27 Q989.318 1537.43 993.945 1537.43 Q1001.62 1537.43 1006.4 1543.52 Q1011.21 1549.61 1011.21 1559.54 Q1011.21 1569.48 1006.4 1575.57 Q1001.62 1581.66 993.945 1581.66 Q989.318 1581.66 985.97 1579.86 Q982.66 1578.01 980.478 1574.25 M1004.03 1559.54 Q1004.03 1551.91 1000.87 1547.58 Q997.744 1543.22 992.252 1543.22 Q986.76 1543.22 983.6 1547.58 Q980.478 1551.91 980.478 1559.54 Q980.478 1567.18 983.6 1571.54 Q986.76 1575.87 992.252 1575.87 Q997.744 1575.87 1000.87 1571.54 Q1004.03 1567.18 1004.03 1559.54 Z" fill="#000000" fill-rule="nonzero" fill-opacity="1" /><path clip-path="url(#clip780)" d="M1047.1 1544.91 Q1045.93 1544.24 1044.54 1543.93 Q1043.18 1543.6 1041.53 1543.6 Q1035.66 1543.6 1032.5 1547.43 Q1029.38 1551.23 1029.38 1558.38 L1029.38 1580.57 L1022.42 1580.57 L1022.42 1538.44 L1029.38 1538.44 L1029.38 1544.99 Q1031.56 1541.15 1035.06 1539.31 Q1038.56 1537.43 1043.56 1537.43 Q1044.27 1537.43 1045.14 1537.54 Q1046 1537.61 1047.06 1537.8 L1047.1 1544.91 Z" fill="#000000" fill-rule="nonzero" fill-opacity="1" /><path clip-path="url(#clip780)" d="M1068.99 1543.29 Q1063.42 1543.29 1060.19 1547.66 Q1056.95 1551.98 1056.95 1559.54 Q1056.95 1567.11 1060.15 1571.47 Q1063.38 1575.79 1068.99 1575.79 Q1074.52 1575.79 1077.75 1571.43 Q1080.99 1567.07 1080.99 1559.54 Q1080.99 1552.06 1077.75 1547.7 Q1074.52 1543.29 1068.99 1543.29 M1068.99 1537.43 Q1078.02 1537.43 1083.17 1543.29 Q1088.32 1549.16 1088.32 1559.54 Q1088.32 1569.89 1083.17 1575.79 Q1078.02 1581.66 1068.99 1581.66 Q1059.92 1581.66 1054.77 1575.79 Q1049.65 1569.89 1049.65 1559.54 Q1049.65 1549.16 1054.77 1543.29 Q1059.92 1537.43 1068.99 1537.43 Z" fill="#000000" fill-rule="nonzero" fill-opacity="1" /><path clip-path="url(#clip780)" d="M1130.11 1540.06 L1130.11 1546.53 Q1127.18 1544.91 1124.21 1544.12 Q1121.27 1543.29 1118.26 1543.29 Q1111.53 1543.29 1107.81 1547.58 Q1104.08 1551.83 1104.08 1559.54 Q1104.08 1567.26 1107.81 1571.54 Q1111.53 1575.79 1118.26 1575.79 Q1121.27 1575.79 1124.21 1575 Q1127.18 1574.18 1130.11 1572.56 L1130.11 1578.95 Q1127.22 1580.31 1124.09 1580.99 Q1121.01 1581.66 1117.51 1581.66 Q1107.99 1581.66 1102.39 1575.68 Q1096.79 1569.7 1096.79 1559.54 Q1096.79 1549.24 1102.43 1543.33 Q1108.11 1537.43 1117.96 1537.43 Q1121.16 1537.43 1124.21 1538.1 Q1127.25 1538.74 1130.11 1540.06 Z" fill="#000000" fill-rule="nonzero" fill-opacity="1" /><path clip-path="url(#clip780)" d="M1178.19 1557.78 L1178.19 1561.16 L1146.36 1561.16 Q1146.81 1568.31 1150.65 1572.07 Q1154.53 1575.79 1161.41 1575.79 Q1165.4 1575.79 1169.12 1574.82 Q1172.88 1573.84 1176.57 1571.88 L1176.57 1578.43 Q1172.84 1580.01 1168.93 1580.84 Q1165.02 1581.66 1161 1581.66 Q1150.91 1581.66 1145.01 1575.79 Q1139.14 1569.93 1139.14 1559.92 Q1139.14 1549.58 1144.71 1543.52 Q1150.31 1537.43 1159.79 1537.43 Q1168.29 1537.43 1173.22 1542.92 Q1178.19 1548.37 1178.19 1557.78 M1171.26 1555.75 Q1171.19 1550.07 1168.07 1546.68 Q1164.98 1543.29 1159.87 1543.29 Q1154.07 1543.29 1150.58 1546.57 Q1147.12 1549.84 1146.59 1555.78 L1171.26 1555.75 Z" fill="#000000" fill-rule="nonzero" fill-opacity="1" /><path clip-path="url(#clip780)" d="M1216.4 1539.68 L1216.4 1546.23 Q1213.47 1544.72 1210.31 1543.97 Q1207.15 1543.22 1203.76 1543.22 Q1198.61 1543.22 1196.02 1544.8 Q1193.46 1546.38 1193.46 1549.54 Q1193.46 1551.95 1195.3 1553.34 Q1197.14 1554.69 1202.71 1555.93 L1205.08 1556.46 Q1212.45 1558.04 1215.54 1560.94 Q1218.66 1563.8 1218.66 1568.95 Q1218.66 1574.82 1214 1578.24 Q1209.37 1581.66 1201.24 1581.66 Q1197.86 1581.66 1194.17 1580.99 Q1190.52 1580.35 1186.46 1579.03 L1186.46 1571.88 Q1190.3 1573.88 1194.02 1574.89 Q1197.75 1575.87 1201.39 1575.87 Q1206.28 1575.87 1208.92 1574.21 Q1211.55 1572.52 1211.55 1569.48 Q1211.55 1566.65 1209.63 1565.15 Q1207.75 1563.64 1201.32 1562.25 L1198.91 1561.69 Q1192.48 1560.33 1189.62 1557.55 Q1186.76 1554.73 1186.76 1549.84 Q1186.76 1543.9 1190.97 1540.66 Q1195.19 1537.43 1202.94 1537.43 Q1206.77 1537.43 1210.16 1537.99 Q1213.54 1538.56 1216.4 1539.68 Z" fill="#000000" fill-rule="nonzero" fill-opacity="1" /><path clip-path="url(#clip780)" d="M1256.54 1539.68 L1256.54 1546.23 Q1253.6 1544.72 1250.44 1543.97 Q1247.29 1543.22 1243.9 1543.22 Q1238.75 1543.22 1236.15 1544.8 Q1233.59 1546.38 1233.59 1549.54 Q1233.59 1551.95 1235.44 1553.34 Q1237.28 1554.69 1242.85 1555.93 L1245.22 1556.46 Q1252.59 1558.04 1255.67 1560.94 Q1258.8 1563.8 1258.8 1568.95 Q1258.8 1574.82 1254.13 1578.24 Q1249.5 1581.66 1241.38 1581.66 Q1237.99 1581.66 1234.31 1580.99 Q1230.66 1580.35 1226.6 1579.03 L1226.6 1571.88 Q1230.43 1573.88 1234.16 1574.89 Q1237.88 1575.87 1241.53 1575.87 Q1246.42 1575.87 1249.05 1574.21 Q1251.69 1572.52 1251.69 1569.48 Q1251.69 1566.65 1249.77 1565.15 Q1247.89 1563.64 1241.45 1562.25 L1239.05 1561.69 Q1232.62 1560.33 1229.76 1557.55 Q1226.9 1554.73 1226.9 1549.84 Q1226.9 1543.9 1231.11 1540.66 Q1235.32 1537.43 1243.07 1537.43 Q1246.91 1537.43 1250.29 1537.99 Q1253.68 1538.56 1256.54 1539.68 Z" fill="#000000" fill-rule="nonzero" fill-opacity="1" /><path clip-path="url(#clip780)" d="M1305.85 1557.78 L1305.85 1561.16 L1274.03 1561.16 Q1274.48 1568.31 1278.32 1572.07 Q1282.19 1575.79 1289.08 1575.79 Q1293.06 1575.79 1296.79 1574.82 Q1300.55 1573.84 1304.24 1571.88 L1304.24 1578.43 Q1300.51 1580.01 1296.6 1580.84 Q1292.69 1581.66 1288.66 1581.66 Q1278.58 1581.66 1272.68 1575.79 Q1266.81 1569.93 1266.81 1559.92 Q1266.81 1549.58 1272.37 1543.52 Q1277.98 1537.43 1287.46 1537.43 Q1295.96 1537.43 1300.89 1542.92 Q1305.85 1548.37 1305.85 1557.78 M1298.93 1555.75 Q1298.86 1550.07 1295.73 1546.68 Q1292.65 1543.29 1287.53 1543.29 Q1281.74 1543.29 1278.24 1546.57 Q1274.78 1549.84 1274.26 1555.78 L1298.93 1555.75 Z" fill="#000000" fill-rule="nonzero" fill-opacity="1" /><path clip-path="url(#clip780)" d="M1344.07 1539.68 L1344.07 1546.23 Q1341.14 1544.72 1337.98 1543.97 Q1334.82 1543.22 1331.43 1543.22 Q1326.28 1543.22 1323.68 1544.8 Q1321.12 1546.38 1321.12 1549.54 Q1321.12 1551.95 1322.97 1553.34 Q1324.81 1554.69 1330.38 1555.93 L1332.75 1556.46 Q1340.12 1558.04 1343.2 1560.94 Q1346.33 1563.8 1346.33 1568.95 Q1346.33 1574.82 1341.66 1578.24 Q1337.04 1581.66 1328.91 1581.66 Q1325.53 1581.66 1321.84 1580.99 Q1318.19 1580.35 1314.13 1579.03 L1314.13 1571.88 Q1317.96 1573.88 1321.69 1574.89 Q1325.41 1575.87 1329.06 1575.87 Q1333.95 1575.87 1336.58 1574.21 Q1339.22 1572.52 1339.22 1569.48 Q1339.22 1566.65 1337.3 1565.15 Q1335.42 1563.64 1328.99 1562.25 L1326.58 1561.69 Q1320.15 1560.33 1317.29 1557.55 Q1314.43 1554.73 1314.43 1549.84 Q1314.43 1543.9 1318.64 1540.66 Q1322.85 1537.43 1330.6 1537.43 Q1334.44 1537.43 1337.83 1537.99 Q1341.21 1538.56 1344.07 1539.68 Z" fill="#000000" fill-rule="nonzero" fill-opacity="1" /><polyline clip-path="url(#clip782)" style="stroke:#000000; stroke-linecap:round; stroke-linejoin:round; stroke-width:2; stroke-opacity:0.1; fill:none" points="276.599,1237.69 1611.12,1237.69 "/>
<polyline clip-path="url(#clip782)" style="stroke:#000000; stroke-linecap:round; stroke-linejoin:round; stroke-width:2; stroke-opacity:0.1; fill:none" points="276.599,461.536 1611.12,461.536 "/>
<polyline clip-path="url(#clip782)" style="stroke:#000000; stroke-linecap:round; stroke-linejoin:round; stroke-width:2; stroke-opacity:0.05; fill:none" points="276.599,1392.13 1611.12,1392.13 "/>
<polyline clip-path="url(#clip782)" style="stroke:#000000; stroke-linecap:round; stroke-linejoin:round; stroke-width:2; stroke-opacity:0.05; fill:none" points="276.599,1354.52 1611.12,1354.52 "/>
<polyline clip-path="url(#clip782)" style="stroke:#000000; stroke-linecap:round; stroke-linejoin:round; stroke-width:2; stroke-opacity:0.05; fill:none" points="276.599,1323.79 1611.12,1323.79 "/>
<polyline clip-path="url(#clip782)" style="stroke:#000000; stroke-linecap:round; stroke-linejoin:round; stroke-width:2; stroke-opacity:0.05; fill:none" points="276.599,1297.81 1611.12,1297.81 "/>
<polyline clip-path="url(#clip782)" style="stroke:#000000; stroke-linecap:round; stroke-linejoin:round; stroke-width:2; stroke-opacity:0.05; fill:none" points="276.599,1275.3 1611.12,1275.3 "/>
<polyline clip-path="url(#clip782)" style="stroke:#000000; stroke-linecap:round; stroke-linejoin:round; stroke-width:2; stroke-opacity:0.05; fill:none" points="276.599,1255.45 1611.12,1255.45 "/>
<polyline clip-path="url(#clip782)" style="stroke:#000000; stroke-linecap:round; stroke-linejoin:round; stroke-width:2; stroke-opacity:0.05; fill:none" points="276.599,1237.69 1611.12,1237.69 "/>
<polyline clip-path="url(#clip782)" style="stroke:#000000; stroke-linecap:round; stroke-linejoin:round; stroke-width:2; stroke-opacity:0.05; fill:none" points="276.599,1237.69 1611.12,1237.69 "/>
<polyline clip-path="url(#clip782)" style="stroke:#000000; stroke-linecap:round; stroke-linejoin:round; stroke-width:2; stroke-opacity:0.05; fill:none" points="276.599,1120.87 1611.12,1120.87 "/>
<polyline clip-path="url(#clip782)" style="stroke:#000000; stroke-linecap:round; stroke-linejoin:round; stroke-width:2; stroke-opacity:0.05; fill:none" points="276.599,1052.53 1611.12,1052.53 "/>
<polyline clip-path="url(#clip782)" style="stroke:#000000; stroke-linecap:round; stroke-linejoin:round; stroke-width:2; stroke-opacity:0.05; fill:none" points="276.599,1004.05 1611.12,1004.05 "/>
<polyline clip-path="url(#clip782)" style="stroke:#000000; stroke-linecap:round; stroke-linejoin:round; stroke-width:2; stroke-opacity:0.05; fill:none" points="276.599,966.438 1611.12,966.438 "/>
<polyline clip-path="url(#clip782)" style="stroke:#000000; stroke-linecap:round; stroke-linejoin:round; stroke-width:2; stroke-opacity:0.05; fill:none" points="276.599,935.709 1611.12,935.709 "/>
<polyline clip-path="url(#clip782)" style="stroke:#000000; stroke-linecap:round; stroke-linejoin:round; stroke-width:2; stroke-opacity:0.05; fill:none" points="276.599,909.729 1611.12,909.729 "/>
<polyline clip-path="url(#clip782)" style="stroke:#000000; stroke-linecap:round; stroke-linejoin:round; stroke-width:2; stroke-opacity:0.05; fill:none" points="276.599,887.223 1611.12,887.223 "/>
<polyline clip-path="url(#clip782)" style="stroke:#000000; stroke-linecap:round; stroke-linejoin:round; stroke-width:2; stroke-opacity:0.05; fill:none" points="276.599,867.372 1611.12,867.372 "/>
<polyline clip-path="url(#clip782)" style="stroke:#000000; stroke-linecap:round; stroke-linejoin:round; stroke-width:2; stroke-opacity:0.05; fill:none" points="276.599,1120.87 1611.12,1120.87 "/>
<polyline clip-path="url(#clip782)" style="stroke:#000000; stroke-linecap:round; stroke-linejoin:round; stroke-width:2; stroke-opacity:0.05; fill:none" points="276.599,1052.53 1611.12,1052.53 "/>
<polyline clip-path="url(#clip782)" style="stroke:#000000; stroke-linecap:round; stroke-linejoin:round; stroke-width:2; stroke-opacity:0.05; fill:none" points="276.599,1004.05 1611.12,1004.05 "/>
<polyline clip-path="url(#clip782)" style="stroke:#000000; stroke-linecap:round; stroke-linejoin:round; stroke-width:2; stroke-opacity:0.05; fill:none" points="276.599,966.438 1611.12,966.438 "/>
<polyline clip-path="url(#clip782)" style="stroke:#000000; stroke-linecap:round; stroke-linejoin:round; stroke-width:2; stroke-opacity:0.05; fill:none" points="276.599,935.709 1611.12,935.709 "/>
<polyline clip-path="url(#clip782)" style="stroke:#000000; stroke-linecap:round; stroke-linejoin:round; stroke-width:2; stroke-opacity:0.05; fill:none" points="276.599,909.729 1611.12,909.729 "/>
<polyline clip-path="url(#clip782)" style="stroke:#000000; stroke-linecap:round; stroke-linejoin:round; stroke-width:2; stroke-opacity:0.05; fill:none" points="276.599,887.223 1611.12,887.223 "/>
<polyline clip-path="url(#clip782)" style="stroke:#000000; stroke-linecap:round; stroke-linejoin:round; stroke-width:2; stroke-opacity:0.05; fill:none" points="276.599,867.372 1611.12,867.372 "/>
<polyline clip-path="url(#clip782)" style="stroke:#000000; stroke-linecap:round; stroke-linejoin:round; stroke-width:2; stroke-opacity:0.05; fill:none" points="276.599,849.615 1611.12,849.615 "/>
<polyline clip-path="url(#clip782)" style="stroke:#000000; stroke-linecap:round; stroke-linejoin:round; stroke-width:2; stroke-opacity:0.05; fill:none" points="276.599,849.615 1611.12,849.615 "/>
<polyline clip-path="url(#clip782)" style="stroke:#000000; stroke-linecap:round; stroke-linejoin:round; stroke-width:2; stroke-opacity:0.05; fill:none" points="276.599,732.791 1611.12,732.791 "/>
<polyline clip-path="url(#clip782)" style="stroke:#000000; stroke-linecap:round; stroke-linejoin:round; stroke-width:2; stroke-opacity:0.05; fill:none" points="276.599,664.454 1611.12,664.454 "/>
<polyline clip-path="url(#clip782)" style="stroke:#000000; stroke-linecap:round; stroke-linejoin:round; stroke-width:2; stroke-opacity:0.05; fill:none" points="276.599,615.968 1611.12,615.968 "/>
<polyline clip-path="url(#clip782)" style="stroke:#000000; stroke-linecap:round; stroke-linejoin:round; stroke-width:2; stroke-opacity:0.05; fill:none" points="276.599,578.359 1611.12,578.359 "/>
<polyline clip-path="url(#clip782)" style="stroke:#000000; stroke-linecap:round; stroke-linejoin:round; stroke-width:2; stroke-opacity:0.05; fill:none" points="276.599,547.631 1611.12,547.631 "/>
<polyline clip-path="url(#clip782)" style="stroke:#000000; stroke-linecap:round; stroke-linejoin:round; stroke-width:2; stroke-opacity:0.05; fill:none" points="276.599,521.65 1611.12,521.65 "/>
<polyline clip-path="url(#clip782)" style="stroke:#000000; stroke-linecap:round; stroke-linejoin:round; stroke-width:2; stroke-opacity:0.05; fill:none" points="276.599,499.145 1611.12,499.145 "/>
<polyline clip-path="url(#clip782)" style="stroke:#000000; stroke-linecap:round; stroke-linejoin:round; stroke-width:2; stroke-opacity:0.05; fill:none" points="276.599,479.293 1611.12,479.293 "/>
<polyline clip-path="url(#clip782)" style="stroke:#000000; stroke-linecap:round; stroke-linejoin:round; stroke-width:2; stroke-opacity:0.05; fill:none" points="276.599,344.713 1611.12,344.713 "/>
<polyline clip-path="url(#clip782)" style="stroke:#000000; stroke-linecap:round; stroke-linejoin:round; stroke-width:2; stroke-opacity:0.05; fill:none" points="276.599,276.375 1611.12,276.375 "/>
<polyline clip-path="url(#clip782)" style="stroke:#000000; stroke-linecap:round; stroke-linejoin:round; stroke-width:2; stroke-opacity:0.05; fill:none" points="276.599,227.889 1611.12,227.889 "/>
<polyline clip-path="url(#clip782)" style="stroke:#000000; stroke-linecap:round; stroke-linejoin:round; stroke-width:2; stroke-opacity:0.05; fill:none" points="276.599,190.281 1611.12,190.281 "/>
<polyline clip-path="url(#clip782)" style="stroke:#000000; stroke-linecap:round; stroke-linejoin:round; stroke-width:2; stroke-opacity:0.05; fill:none" points="276.599,159.552 1611.12,159.552 "/>
<polyline clip-path="url(#clip782)" style="stroke:#000000; stroke-linecap:round; stroke-linejoin:round; stroke-width:2; stroke-opacity:0.05; fill:none" points="276.599,133.571 1611.12,133.571 "/>
<polyline clip-path="url(#clip782)" style="stroke:#000000; stroke-linecap:round; stroke-linejoin:round; stroke-width:2; stroke-opacity:0.05; fill:none" points="276.599,111.066 1611.12,111.066 "/>
<polyline clip-path="url(#clip782)" style="stroke:#000000; stroke-linecap:round; stroke-linejoin:round; stroke-width:2; stroke-opacity:0.05; fill:none" points="276.599,91.2147 1611.12,91.2147 "/>
<polyline clip-path="url(#clip782)" style="stroke:#000000; stroke-linecap:round; stroke-linejoin:round; stroke-width:2; stroke-opacity:0.05; fill:none" points="276.599,73.4572 1611.12,73.4572 "/>
<polyline clip-path="url(#clip782)" style="stroke:#000000; stroke-linecap:round; stroke-linejoin:round; stroke-width:2; stroke-opacity:0.05; fill:none" points="276.599,73.4572 1611.12,73.4572 "/>
<polyline clip-path="url(#clip780)" style="stroke:#000000; stroke-linecap:round; stroke-linejoin:round; stroke-width:4; stroke-opacity:1; fill:none" points="276.599,1392.94 276.599,47.2441 "/>
<polyline clip-path="url(#clip780)" style="stroke:#000000; stroke-linecap:round; stroke-linejoin:round; stroke-width:4; stroke-opacity:1; fill:none" points="276.599,1237.69 288.746,1237.69 "/>
<polyline clip-path="url(#clip780)" style="stroke:#000000; stroke-linecap:round; stroke-linejoin:round; stroke-width:4; stroke-opacity:1; fill:none" points="276.599,461.536 288.746,461.536 "/>
<polyline clip-path="url(#clip780)" style="stroke:#000000; stroke-linecap:round; stroke-linejoin:round; stroke-width:4; stroke-opacity:1; fill:none" points="276.599,1392.13 282.673,1392.13 "/>
<polyline clip-path="url(#clip780)" style="stroke:#000000; stroke-linecap:round; stroke-linejoin:round; stroke-width:4; stroke-opacity:1; fill:none" points="276.599,1354.52 282.673,1354.52 "/>
<polyline clip-path="url(#clip780)" style="stroke:#000000; stroke-linecap:round; stroke-linejoin:round; stroke-width:4; stroke-opacity:1; fill:none" points="276.599,1323.79 282.673,1323.79 "/>
<polyline clip-path="url(#clip780)" style="stroke:#000000; stroke-linecap:round; stroke-linejoin:round; stroke-width:4; stroke-opacity:1; fill:none" points="276.599,1297.81 282.673,1297.81 "/>
<polyline clip-path="url(#clip780)" style="stroke:#000000; stroke-linecap:round; stroke-linejoin:round; stroke-width:4; stroke-opacity:1; fill:none" points="276.599,1275.3 282.673,1275.3 "/>
<polyline clip-path="url(#clip780)" style="stroke:#000000; stroke-linecap:round; stroke-linejoin:round; stroke-width:4; stroke-opacity:1; fill:none" points="276.599,1255.45 282.673,1255.45 "/>
<polyline clip-path="url(#clip780)" style="stroke:#000000; stroke-linecap:round; stroke-linejoin:round; stroke-width:4; stroke-opacity:1; fill:none" points="276.599,1237.69 282.673,1237.69 "/>
<polyline clip-path="url(#clip780)" style="stroke:#000000; stroke-linecap:round; stroke-linejoin:round; stroke-width:4; stroke-opacity:1; fill:none" points="276.599,1237.69 282.673,1237.69 "/>
<polyline clip-path="url(#clip780)" style="stroke:#000000; stroke-linecap:round; stroke-linejoin:round; stroke-width:4; stroke-opacity:1; fill:none" points="276.599,1120.87 282.673,1120.87 "/>
<polyline clip-path="url(#clip780)" style="stroke:#000000; stroke-linecap:round; stroke-linejoin:round; stroke-width:4; stroke-opacity:1; fill:none" points="276.599,1052.53 282.673,1052.53 "/>
<polyline clip-path="url(#clip780)" style="stroke:#000000; stroke-linecap:round; stroke-linejoin:round; stroke-width:4; stroke-opacity:1; fill:none" points="276.599,1004.05 282.673,1004.05 "/>
<polyline clip-path="url(#clip780)" style="stroke:#000000; stroke-linecap:round; stroke-linejoin:round; stroke-width:4; stroke-opacity:1; fill:none" points="276.599,966.438 282.673,966.438 "/>
<polyline clip-path="url(#clip780)" style="stroke:#000000; stroke-linecap:round; stroke-linejoin:round; stroke-width:4; stroke-opacity:1; fill:none" points="276.599,935.709 282.673,935.709 "/>
<polyline clip-path="url(#clip780)" style="stroke:#000000; stroke-linecap:round; stroke-linejoin:round; stroke-width:4; stroke-opacity:1; fill:none" points="276.599,909.729 282.673,909.729 "/>
<polyline clip-path="url(#clip780)" style="stroke:#000000; stroke-linecap:round; stroke-linejoin:round; stroke-width:4; stroke-opacity:1; fill:none" points="276.599,887.223 282.673,887.223 "/>
<polyline clip-path="url(#clip780)" style="stroke:#000000; stroke-linecap:round; stroke-linejoin:round; stroke-width:4; stroke-opacity:1; fill:none" points="276.599,867.372 282.673,867.372 "/>
<polyline clip-path="url(#clip780)" style="stroke:#000000; stroke-linecap:round; stroke-linejoin:round; stroke-width:4; stroke-opacity:1; fill:none" points="276.599,1120.87 282.673,1120.87 "/>
<polyline clip-path="url(#clip780)" style="stroke:#000000; stroke-linecap:round; stroke-linejoin:round; stroke-width:4; stroke-opacity:1; fill:none" points="276.599,1052.53 282.673,1052.53 "/>
<polyline clip-path="url(#clip780)" style="stroke:#000000; stroke-linecap:round; stroke-linejoin:round; stroke-width:4; stroke-opacity:1; fill:none" points="276.599,1004.05 282.673,1004.05 "/>
<polyline clip-path="url(#clip780)" style="stroke:#000000; stroke-linecap:round; stroke-linejoin:round; stroke-width:4; stroke-opacity:1; fill:none" points="276.599,966.438 282.673,966.438 "/>
<polyline clip-path="url(#clip780)" style="stroke:#000000; stroke-linecap:round; stroke-linejoin:round; stroke-width:4; stroke-opacity:1; fill:none" points="276.599,935.709 282.673,935.709 "/>
<polyline clip-path="url(#clip780)" style="stroke:#000000; stroke-linecap:round; stroke-linejoin:round; stroke-width:4; stroke-opacity:1; fill:none" points="276.599,909.729 282.673,909.729 "/>
<polyline clip-path="url(#clip780)" style="stroke:#000000; stroke-linecap:round; stroke-linejoin:round; stroke-width:4; stroke-opacity:1; fill:none" points="276.599,887.223 282.673,887.223 "/>
<polyline clip-path="url(#clip780)" style="stroke:#000000; stroke-linecap:round; stroke-linejoin:round; stroke-width:4; stroke-opacity:1; fill:none" points="276.599,867.372 282.673,867.372 "/>
<polyline clip-path="url(#clip780)" style="stroke:#000000; stroke-linecap:round; stroke-linejoin:round; stroke-width:4; stroke-opacity:1; fill:none" points="276.599,849.615 282.673,849.615 "/>
<polyline clip-path="url(#clip780)" style="stroke:#000000; stroke-linecap:round; stroke-linejoin:round; stroke-width:4; stroke-opacity:1; fill:none" points="276.599,849.615 282.673,849.615 "/>
<polyline clip-path="url(#clip780)" style="stroke:#000000; stroke-linecap:round; stroke-linejoin:round; stroke-width:4; stroke-opacity:1; fill:none" points="276.599,732.791 282.673,732.791 "/>
<polyline clip-path="url(#clip780)" style="stroke:#000000; stroke-linecap:round; stroke-linejoin:round; stroke-width:4; stroke-opacity:1; fill:none" points="276.599,664.454 282.673,664.454 "/>
<polyline clip-path="url(#clip780)" style="stroke:#000000; stroke-linecap:round; stroke-linejoin:round; stroke-width:4; stroke-opacity:1; fill:none" points="276.599,615.968 282.673,615.968 "/>
<polyline clip-path="url(#clip780)" style="stroke:#000000; stroke-linecap:round; stroke-linejoin:round; stroke-width:4; stroke-opacity:1; fill:none" points="276.599,578.359 282.673,578.359 "/>
<polyline clip-path="url(#clip780)" style="stroke:#000000; stroke-linecap:round; stroke-linejoin:round; stroke-width:4; stroke-opacity:1; fill:none" points="276.599,547.631 282.673,547.631 "/>
<polyline clip-path="url(#clip780)" style="stroke:#000000; stroke-linecap:round; stroke-linejoin:round; stroke-width:4; stroke-opacity:1; fill:none" points="276.599,521.65 282.673,521.65 "/>
<polyline clip-path="url(#clip780)" style="stroke:#000000; stroke-linecap:round; stroke-linejoin:round; stroke-width:4; stroke-opacity:1; fill:none" points="276.599,499.145 282.673,499.145 "/>
<polyline clip-path="url(#clip780)" style="stroke:#000000; stroke-linecap:round; stroke-linejoin:round; stroke-width:4; stroke-opacity:1; fill:none" points="276.599,479.293 282.673,479.293 "/>
<polyline clip-path="url(#clip780)" style="stroke:#000000; stroke-linecap:round; stroke-linejoin:round; stroke-width:4; stroke-opacity:1; fill:none" points="276.599,344.713 282.673,344.713 "/>
<polyline clip-path="url(#clip780)" style="stroke:#000000; stroke-linecap:round; stroke-linejoin:round; stroke-width:4; stroke-opacity:1; fill:none" points="276.599,276.375 282.673,276.375 "/>
<polyline clip-path="url(#clip780)" style="stroke:#000000; stroke-linecap:round; stroke-linejoin:round; stroke-width:4; stroke-opacity:1; fill:none" points="276.599,227.889 282.673,227.889 "/>
<polyline clip-path="url(#clip780)" style="stroke:#000000; stroke-linecap:round; stroke-linejoin:round; stroke-width:4; stroke-opacity:1; fill:none" points="276.599,190.281 282.673,190.281 "/>
<polyline clip-path="url(#clip780)" style="stroke:#000000; stroke-linecap:round; stroke-linejoin:round; stroke-width:4; stroke-opacity:1; fill:none" points="276.599,159.552 282.673,159.552 "/>
<polyline clip-path="url(#clip780)" style="stroke:#000000; stroke-linecap:round; stroke-linejoin:round; stroke-width:4; stroke-opacity:1; fill:none" points="276.599,133.571 282.673,133.571 "/>
<polyline clip-path="url(#clip780)" style="stroke:#000000; stroke-linecap:round; stroke-linejoin:round; stroke-width:4; stroke-opacity:1; fill:none" points="276.599,111.066 282.673,111.066 "/>
<polyline clip-path="url(#clip780)" style="stroke:#000000; stroke-linecap:round; stroke-linejoin:round; stroke-width:4; stroke-opacity:1; fill:none" points="276.599,91.2147 282.673,91.2147 "/>
<polyline clip-path="url(#clip780)" style="stroke:#000000; stroke-linecap:round; stroke-linejoin:round; stroke-width:4; stroke-opacity:1; fill:none" points="276.599,73.4572 282.673,73.4572 "/>
<polyline clip-path="url(#clip780)" style="stroke:#000000; stroke-linecap:round; stroke-linejoin:round; stroke-width:4; stroke-opacity:1; fill:none" points="276.599,73.4572 282.673,73.4572 "/>
<path clip-path="url(#clip780)" d="M128.27 1269.86 L140.683 1269.86 L140.683 1227.01 L127.179 1229.72 L127.179 1222.8 L140.608 1220.09 L148.206 1220.09 L148.206 1269.86 L160.619 1269.86 L160.619 1276.25 L128.27 1276.25 L128.27 1269.86 Z" fill="#000000" fill-rule="nonzero" fill-opacity="1" /><path clip-path="url(#clip780)" d="M192.216 1225.09 Q186.348 1225.09 183.377 1230.89 Q180.443 1236.64 180.443 1248.23 Q180.443 1259.78 183.377 1265.57 Q186.348 1271.32 192.216 1271.32 Q198.122 1271.32 201.056 1265.57 Q204.027 1259.78 204.027 1248.23 Q204.027 1236.64 201.056 1230.89 Q198.122 1225.09 192.216 1225.09 M192.216 1219.08 Q201.658 1219.08 206.623 1226.56 Q211.626 1234.01 211.626 1248.23 Q211.626 1262.41 206.623 1269.89 Q201.658 1277.34 192.216 1277.34 Q182.775 1277.34 177.772 1269.89 Q172.807 1262.41 172.807 1248.23 Q172.807 1234.01 177.772 1226.56 Q182.775 1219.08 192.216 1219.08 Z" fill="#000000" fill-rule="nonzero" fill-opacity="1" /><path clip-path="url(#clip780)" d="M219.053 1226.51 L240.599 1226.51 L240.599 1231.71 L211.626 1231.71 L211.626 1226.51 Q215.141 1222.88 221.192 1216.76 Q227.274 1210.62 228.833 1208.85 Q231.797 1205.52 232.959 1203.22 Q234.15 1200.9 234.15 1198.67 Q234.15 1195.03 231.583 1192.74 Q229.047 1190.45 224.951 1190.45 Q222.048 1190.45 218.808 1191.46 Q215.599 1192.47 211.931 1194.51 L211.931 1188.28 Q215.66 1186.78 218.9 1186.02 Q222.139 1185.25 224.829 1185.25 Q231.919 1185.25 236.137 1188.8 Q240.355 1192.34 240.355 1198.27 Q240.355 1201.09 239.285 1203.62 Q238.246 1206.13 235.465 1209.55 Q234.701 1210.44 230.605 1214.69 Q226.51 1218.9 219.053 1226.51 Z" fill="#000000" fill-rule="nonzero" fill-opacity="1" /><path clip-path="url(#clip780)" d="M123.991 493.699 L136.404 493.699 L136.404 450.855 L122.9 453.563 L122.9 446.642 L136.329 443.933 L143.927 443.933 L143.927 493.699 L156.34 493.699 L156.34 500.093 L123.991 500.093 L123.991 493.699 Z" fill="#000000" fill-rule="nonzero" fill-opacity="1" /><path clip-path="url(#clip780)" d="M187.937 448.936 Q182.069 448.936 179.098 454.729 Q176.164 460.484 176.164 472.07 Q176.164 483.618 179.098 489.41 Q182.069 495.166 187.937 495.166 Q193.843 495.166 196.777 489.41 Q199.749 483.618 199.749 472.07 Q199.749 460.484 196.777 454.729 Q193.843 448.936 187.937 448.936 M187.937 442.918 Q197.379 442.918 202.344 450.403 Q207.347 457.851 207.347 472.07 Q207.347 486.251 202.344 493.736 Q197.379 501.184 187.937 501.184 Q178.496 501.184 173.493 493.736 Q168.528 486.251 168.528 472.07 Q168.528 457.851 173.493 450.403 Q178.496 442.918 187.937 442.918 Z" fill="#000000" fill-rule="nonzero" fill-opacity="1" /><path clip-path="url(#clip780)" d="M227.946 415.3 L212.359 439.659 L227.946 439.659 L227.946 415.3 M226.326 409.921 L234.089 409.921 L234.089 439.659 L240.599 439.659 L240.599 444.793 L234.089 444.793 L234.089 455.551 L227.946 455.551 L227.946 444.793 L207.347 444.793 L207.347 438.834 L226.326 409.921 Z" fill="#000000" fill-rule="nonzero" fill-opacity="1" /><path clip-path="url(#clip780)" d="M15.7353 1044.9 L23.1456 1044.9 Q21.0767 1049.23 20.0611 1053.06 Q19.0455 1056.9 19.0455 1060.47 Q19.0455 1066.68 21.4529 1070.07 Q23.8603 1073.41 28.2989 1073.41 Q32.0228 1073.41 33.9412 1071.2 Q35.822 1068.94 36.9881 1062.69 L37.9285 1058.11 Q39.546 1049.6 43.646 1045.58 Q47.7085 1041.52 54.5546 1041.52 Q62.7171 1041.52 66.9301 1047.01 Q71.143 1052.46 71.143 1063.03 Q71.143 1067.02 70.2402 1071.53 Q69.3375 1076.01 67.5695 1080.82 L59.7455 1080.82 Q62.341 1076.2 63.6575 1071.76 Q64.9741 1067.32 64.9741 1063.03 Q64.9741 1056.53 62.4162 1052.99 Q59.8583 1049.45 55.1188 1049.45 Q50.9811 1049.45 48.6489 1052.01 Q46.3168 1054.53 45.1507 1060.32 L44.2479 1064.95 Q42.5552 1073.45 38.9441 1077.25 Q35.333 1081.05 28.9008 1081.05 Q21.4529 1081.05 17.1647 1075.82 Q12.8765 1070.56 12.8765 1061.34 Q12.8765 1057.39 13.5912 1053.29 Q14.3059 1049.19 15.7353 1044.9 Z" fill="#000000" fill-rule="nonzero" fill-opacity="1" /><path clip-path="url(#clip780)" d="M27.9228 1029.97 L27.9228 1023.05 L70.0522 1023.05 L70.0522 1029.97 L27.9228 1029.97 M11.5224 1029.97 L11.5224 1023.05 L20.2868 1023.05 L20.2868 1029.97 L11.5224 1029.97 Z" fill="#000000" fill-rule="nonzero" fill-opacity="1" /><path clip-path="url(#clip780)" d="M36.0101 975.765 Q31.3458 973.169 29.1265 969.558 Q26.9071 965.947 26.9071 961.057 Q26.9071 954.474 31.5338 950.901 Q36.1229 947.327 44.6241 947.327 L70.0522 947.327 L70.0522 954.286 L44.8497 954.286 Q38.7936 954.286 35.8596 956.43 Q32.9256 958.574 32.9256 962.976 Q32.9256 968.355 36.4991 971.477 Q40.0726 974.599 46.2415 974.599 L70.0522 974.599 L70.0522 981.558 L44.8497 981.558 Q38.756 981.558 35.8596 983.702 Q32.9256 985.846 32.9256 990.322 Q32.9256 995.626 36.5367 998.748 Q40.1102 1001.87 46.2415 1001.87 L70.0522 1001.87 L70.0522 1008.83 L27.9228 1008.83 L27.9228 1001.87 L34.4679 1001.87 Q30.5935 999.5 28.7503 996.19 Q26.9071 992.88 26.9071 988.328 Q26.9071 983.739 29.2393 980.542 Q31.5715 977.307 36.0101 975.765 Z" fill="#000000" fill-rule="nonzero" fill-opacity="1" /><path clip-path="url(#clip780)" d="M53.4261 934.237 L27.9228 934.237 L27.9228 927.316 L53.1628 927.316 Q59.1437 927.316 62.1529 924.984 Q65.1245 922.652 65.1245 917.987 Q65.1245 912.383 61.551 909.148 Q57.9776 905.875 51.8086 905.875 L27.9228 905.875 L27.9228 898.954 L70.0522 898.954 L70.0522 905.875 L63.5823 905.875 Q67.4191 908.395 69.2998 911.743 Q71.143 915.053 71.143 919.454 Q71.143 926.714 66.6291 930.476 Q62.1153 934.237 53.4261 934.237 M26.9071 916.821 L26.9071 916.821 Z" fill="#000000" fill-rule="nonzero" fill-opacity="1" /><path clip-path="url(#clip780)" d="M11.5224 884.698 L11.5224 877.776 L70.0522 877.776 L70.0522 884.698 L11.5224 884.698 Z" fill="#000000" fill-rule="nonzero" fill-opacity="1" /><path clip-path="url(#clip780)" d="M48.8746 844.148 Q48.8746 852.536 50.793 855.771 Q52.7114 859.006 57.3381 859.006 Q61.0244 859.006 63.2061 856.599 Q65.3502 854.154 65.3502 849.978 Q65.3502 844.223 61.2877 840.763 Q57.1876 837.264 50.4168 837.264 L48.8746 837.264 L48.8746 844.148 M46.0158 830.343 L70.0522 830.343 L70.0522 837.264 L63.6575 837.264 Q67.4943 839.634 69.3375 843.17 Q71.143 846.706 71.143 851.822 Q71.143 858.291 67.5319 862.128 Q63.8832 865.927 57.7895 865.927 Q50.6802 865.927 47.0691 861.188 Q43.458 856.411 43.458 846.969 L43.458 837.264 L42.7809 837.264 Q38.0037 837.264 35.4082 840.424 Q32.7752 843.546 32.7752 849.226 Q32.7752 852.837 33.6403 856.26 Q34.5055 859.683 36.2358 862.843 L29.8411 862.843 Q28.3741 859.044 27.6594 855.47 Q26.9071 851.897 26.9071 848.511 Q26.9071 839.371 31.6467 834.857 Q36.3862 830.343 46.0158 830.343 Z" fill="#000000" fill-rule="nonzero" fill-opacity="1" /><path clip-path="url(#clip780)" d="M15.961 809.241 L27.9228 809.241 L27.9228 794.985 L33.3018 794.985 L33.3018 809.241 L56.172 809.241 Q61.3254 809.241 62.7924 807.849 Q64.2594 806.42 64.2594 802.094 L64.2594 794.985 L70.0522 794.985 L70.0522 802.094 Q70.0522 810.106 67.0805 813.153 Q64.0713 816.2 56.172 816.2 L33.3018 816.2 L33.3018 821.278 L27.9228 821.278 L27.9228 816.2 L15.961 816.2 L15.961 809.241 Z" fill="#000000" fill-rule="nonzero" fill-opacity="1" /><path clip-path="url(#clip780)" d="M27.9228 785.882 L27.9228 778.96 L70.0522 778.96 L70.0522 785.882 L27.9228 785.882 M11.5224 785.882 L11.5224 778.96 L20.2868 778.96 L20.2868 785.882 L11.5224 785.882 Z" fill="#000000" fill-rule="nonzero" fill-opacity="1" /><path clip-path="url(#clip780)" d="M32.7752 748.153 Q32.7752 753.72 37.1386 756.955 Q41.4643 760.19 49.0251 760.19 Q56.5858 760.19 60.9492 756.993 Q65.275 753.758 65.275 748.153 Q65.275 742.624 60.9116 739.389 Q56.5482 736.154 49.0251 736.154 Q41.5396 736.154 37.1762 739.389 Q32.7752 742.624 32.7752 748.153 M26.9071 748.153 Q26.9071 739.125 32.7752 733.972 Q38.6432 728.819 49.0251 728.819 Q59.3693 728.819 65.275 733.972 Q71.143 739.125 71.143 748.153 Q71.143 757.219 65.275 762.372 Q59.3693 767.488 49.0251 767.488 Q38.6432 767.488 32.7752 762.372 Q26.9071 757.219 26.9071 748.153 Z" fill="#000000" fill-rule="nonzero" fill-opacity="1" /><path clip-path="url(#clip780)" d="M44.6241 682.326 L70.0522 682.326 L70.0522 689.247 L44.8497 689.247 Q38.8689 689.247 35.8972 691.579 Q32.9256 693.912 32.9256 698.576 Q32.9256 704.181 36.4991 707.416 Q40.0726 710.65 46.2415 710.65 L70.0522 710.65 L70.0522 717.609 L27.9228 717.609 L27.9228 710.65 L34.4679 710.65 Q30.6687 708.168 28.7879 704.82 Q26.9071 701.435 26.9071 697.034 Q26.9071 689.774 31.421 686.05 Q35.8972 682.326 44.6241 682.326 Z" fill="#000000" fill-rule="nonzero" fill-opacity="1" /><path clip-path="url(#clip780)" d="M15.961 637.187 L27.9228 637.187 L27.9228 622.931 L33.3018 622.931 L33.3018 637.187 L56.172 637.187 Q61.3254 637.187 62.7924 635.796 Q64.2594 634.366 64.2594 630.04 L64.2594 622.931 L70.0522 622.931 L70.0522 630.04 Q70.0522 638.052 67.0805 641.099 Q64.0713 644.146 56.172 644.146 L33.3018 644.146 L33.3018 649.224 L27.9228 649.224 L27.9228 644.146 L15.961 644.146 L15.961 637.187 Z" fill="#000000" fill-rule="nonzero" fill-opacity="1" /><path clip-path="url(#clip780)" d="M27.9228 613.828 L27.9228 606.907 L70.0522 606.907 L70.0522 613.828 L27.9228 613.828 M11.5224 613.828 L11.5224 606.907 L20.2868 606.907 L20.2868 613.828 L11.5224 613.828 Z" fill="#000000" fill-rule="nonzero" fill-opacity="1" /><path clip-path="url(#clip780)" d="M36.0101 559.624 Q31.3458 557.029 29.1265 553.418 Q26.9071 549.806 26.9071 544.916 Q26.9071 538.334 31.5338 534.76 Q36.1229 531.187 44.6241 531.187 L70.0522 531.187 L70.0522 538.146 L44.8497 538.146 Q38.7936 538.146 35.8596 540.29 Q32.9256 542.434 32.9256 546.835 Q32.9256 552.214 36.4991 555.336 Q40.0726 558.458 46.2415 558.458 L70.0522 558.458 L70.0522 565.417 L44.8497 565.417 Q38.756 565.417 35.8596 567.561 Q32.9256 569.705 32.9256 574.181 Q32.9256 579.485 36.5367 582.607 Q40.1102 585.729 46.2415 585.729 L70.0522 585.729 L70.0522 592.688 L27.9228 592.688 L27.9228 585.729 L34.4679 585.729 Q30.5935 583.359 28.7503 580.049 Q26.9071 576.739 26.9071 572.188 Q26.9071 567.599 29.2393 564.401 Q31.5715 561.166 36.0101 559.624 Z" fill="#000000" fill-rule="nonzero" fill-opacity="1" /><path clip-path="url(#clip780)" d="M47.2571 481.346 L50.6425 481.346 L50.6425 513.169 Q57.7895 512.718 61.551 508.881 Q65.275 505.006 65.275 498.123 Q65.275 494.135 64.297 490.411 Q63.319 486.65 61.363 482.964 L67.9081 482.964 Q69.4879 486.688 70.3155 490.6 Q71.143 494.512 71.143 498.536 Q71.143 508.617 65.275 514.523 Q59.407 520.391 49.4012 520.391 Q39.057 520.391 33.0009 514.824 Q26.9071 509.219 26.9071 499.74 Q26.9071 491.239 32.399 486.311 Q37.8533 481.346 47.2571 481.346 M45.2259 488.267 Q39.546 488.343 36.1606 491.465 Q32.7752 494.549 32.7752 499.665 Q32.7752 505.458 36.0477 508.956 Q39.3203 512.417 45.2635 512.943 L45.2259 488.267 Z" fill="#000000" fill-rule="nonzero" fill-opacity="1" /><path clip-path="url(#clip780)" d="M11.5224 446.138 L11.5224 430.189 L16.9014 430.189 L16.9014 439.217 L74.8293 439.217 L74.8293 430.189 L80.2084 430.189 L80.2084 446.138 L11.5224 446.138 Z" fill="#000000" fill-rule="nonzero" fill-opacity="1" /><path clip-path="url(#clip780)" d="M29.1641 388.586 L35.7092 388.586 Q34.2045 391.52 33.4522 394.68 Q32.6999 397.84 32.6999 401.225 Q32.6999 406.378 34.2798 408.974 Q35.8596 411.532 39.0193 411.532 Q41.4267 411.532 42.8185 409.689 Q44.1727 407.845 45.414 402.278 L45.9406 399.908 Q47.5204 392.536 50.4168 389.451 Q53.2756 386.329 58.429 386.329 Q64.297 386.329 67.72 390.994 Q71.143 395.62 71.143 403.745 Q71.143 407.131 70.4659 410.817 Q69.8265 414.466 68.5099 418.528 L61.363 418.528 Q63.3566 414.691 64.3722 410.967 Q65.3502 407.244 65.3502 403.595 Q65.3502 398.705 63.6951 396.072 Q62.0024 393.439 58.9556 393.439 Q56.1344 393.439 54.6298 395.357 Q53.1252 397.238 51.7334 403.67 L51.1692 406.077 Q49.815 412.51 47.0314 415.368 Q44.2103 418.227 39.3203 418.227 Q33.377 418.227 30.1421 414.014 Q26.9071 409.801 26.9071 402.053 Q26.9071 398.216 27.4714 394.83 Q28.0356 391.445 29.1641 388.586 Z" fill="#000000" fill-rule="nonzero" fill-opacity="1" /><path clip-path="url(#clip780)" d="M11.5224 359.133 L80.2084 359.133 L80.2084 375.082 L74.8293 375.082 L74.8293 366.092 L16.9014 366.092 L16.9014 375.082 L11.5224 375.082 L11.5224 359.133 Z" fill="#000000" fill-rule="nonzero" fill-opacity="1" /><polyline clip-path="url(#clip782)" style="stroke:#009af9; stroke-linecap:round; stroke-linejoin:round; stroke-width:12; stroke-opacity:1; fill:none" points="314.369,1354.85 428.822,1353.17 937.501,1337.23 1573.35,1319.9 "/>
<polyline clip-path="url(#clip782)" style="stroke:#e26f46; stroke-linecap:round; stroke-linejoin:round; stroke-width:12; stroke-opacity:1; fill:none" points="314.369,1349.86 428.822,1353.17 937.501,1335.42 1573.35,1308.24 "/>
<polyline clip-path="url(#clip782)" style="stroke:#3da44d; stroke-linecap:round; stroke-linejoin:round; stroke-width:12; stroke-opacity:1; fill:none" points="314.369,1339.99 428.822,1351.84 937.501,1330.38 1573.35,1300.97 "/>
<polyline clip-path="url(#clip782)" style="stroke:#c271d2; stroke-linecap:round; stroke-linejoin:round; stroke-width:12; stroke-opacity:1; fill:none" points="314.369,943.176 428.822,1197.41 937.501,1266.48 1573.35,1262.14 "/>
<polyline clip-path="url(#clip782)" style="stroke:#ac8d18; stroke-linecap:round; stroke-linejoin:round; stroke-width:12; stroke-opacity:1; fill:none" points="314.369,878 428.822,1160.6 937.501,1243 1573.35,1244.57 "/>
<polyline clip-path="url(#clip782)" style="stroke:#00a9ad; stroke-linecap:round; stroke-linejoin:round; stroke-width:12; stroke-opacity:1; fill:none" points="314.369,814.724 428.822,1107.9 937.501,1214.14 1573.35,1204.18 "/>
<polyline clip-path="url(#clip782)" style="stroke:#ed5d92; stroke-linecap:round; stroke-linejoin:round; stroke-width:12; stroke-opacity:1; fill:none" points="314.369,160.191 428.822,506.768 937.501,689.098 1573.35,721.278 "/>
<polyline clip-path="url(#clip782)" style="stroke:#c68125; stroke-linecap:round; stroke-linejoin:round; stroke-width:12; stroke-opacity:1; fill:none" points="314.369,85.3298 428.822,434.571 937.501,625.538 1573.35,635.481 "/>
<path clip-path="url(#clip780)" d="M1680.33 1101.91 L2352.76 1101.91 L2352.76 343.748 L1680.33 343.748  Z" fill="#ffffff" fill-rule="evenodd" fill-opacity="1"/>
<polyline clip-path="url(#clip780)" style="stroke:#000000; stroke-linecap:round; stroke-linejoin:round; stroke-width:4; stroke-opacity:1; fill:none" points="1680.33,1101.91 2352.76,1101.91 2352.76,343.748 1680.33,343.748 1680.33,1101.91 "/>
<polyline clip-path="url(#clip780)" style="stroke:#009af9; stroke-linecap:round; stroke-linejoin:round; stroke-width:19.5; stroke-opacity:1; fill:none" points="1703.39,427.988 1841.8,427.988 "/>
<path clip-path="url(#clip780)" d="M1865.96 449.674 L1878.38 449.674 L1878.38 406.83 L1864.87 409.538 L1864.87 402.617 L1878.3 399.908 L1885.9 399.908 L1885.9 449.674 L1898.31 449.674 L1898.31 456.068 L1865.96 456.068 L1865.96 449.674 Z" fill="#000000" fill-rule="nonzero" fill-opacity="1" /><path clip-path="url(#clip780)" d="M1929.91 404.911 Q1924.04 404.911 1921.07 410.704 Q1918.14 416.459 1918.14 428.045 Q1918.14 439.593 1921.07 445.386 Q1924.04 451.141 1929.91 451.141 Q1935.82 451.141 1938.75 445.386 Q1941.72 439.593 1941.72 428.045 Q1941.72 416.459 1938.75 410.704 Q1935.82 404.911 1929.91 404.911 M1929.91 398.893 Q1939.35 398.893 1944.32 406.378 Q1949.32 413.826 1949.32 428.045 Q1949.32 442.226 1944.32 449.711 Q1939.35 457.159 1929.91 457.159 Q1920.47 457.159 1915.47 449.711 Q1910.5 442.226 1910.5 428.045 Q1910.5 413.826 1915.47 406.378 Q1920.47 398.893 1929.91 398.893 Z" fill="#000000" fill-rule="nonzero" fill-opacity="1" /><path clip-path="url(#clip780)" d="M1996.71 430.64 L1996.71 456.068 L1989.79 456.068 L1989.79 430.866 Q1989.79 424.885 1987.46 421.914 Q1985.13 418.942 1980.46 418.942 Q1974.86 418.942 1971.63 422.515 Q1968.39 426.089 1968.39 432.258 L1968.39 456.068 L1961.43 456.068 L1961.43 413.939 L1968.39 413.939 L1968.39 420.484 Q1970.87 416.685 1974.22 414.804 Q1977.61 412.923 1982.01 412.923 Q1989.27 412.923 1992.99 417.437 Q1996.71 421.914 1996.71 430.64 Z" fill="#000000" fill-rule="nonzero" fill-opacity="1" /><path clip-path="url(#clip780)" d="M2017.22 449.749 L2017.22 472.093 L2010.26 472.093 L2010.26 413.939 L2017.22 413.939 L2017.22 420.334 Q2019.4 416.572 2022.71 414.767 Q2026.05 412.923 2030.68 412.923 Q2038.36 412.923 2043.13 419.017 Q2047.95 425.111 2047.95 435.041 Q2047.95 444.972 2043.13 451.066 Q2038.36 457.159 2030.68 457.159 Q2026.05 457.159 2022.71 455.354 Q2019.4 453.511 2017.22 449.749 M2040.76 435.041 Q2040.76 427.405 2037.6 423.08 Q2034.48 418.716 2028.99 418.716 Q2023.5 418.716 2020.34 423.08 Q2017.22 427.405 2017.22 435.041 Q2017.22 442.677 2020.34 447.041 Q2023.5 451.367 2028.99 451.367 Q2034.48 451.367 2037.6 447.041 Q2040.76 442.677 2040.76 435.041 Z" fill="#000000" fill-rule="nonzero" fill-opacity="1" /><path clip-path="url(#clip780)" d="M2091.43 468.858 L2091.43 474.237 L2051.41 474.237 L2051.41 468.858 L2091.43 468.858 Z" fill="#000000" fill-rule="nonzero" fill-opacity="1" /><path clip-path="url(#clip780)" d="M2121.94 425.788 Q2127.39 426.954 2130.44 430.64 Q2133.52 434.327 2133.52 439.743 Q2133.52 448.056 2127.8 452.608 Q2122.09 457.159 2111.55 457.159 Q2108.02 457.159 2104.26 456.445 Q2100.53 455.768 2096.55 454.376 L2096.55 447.041 Q2099.71 448.884 2103.47 449.824 Q2107.23 450.765 2111.33 450.765 Q2118.48 450.765 2122.2 447.944 Q2125.96 445.122 2125.96 439.743 Q2125.96 434.778 2122.46 431.995 Q2119 429.173 2112.8 429.173 L2106.25 429.173 L2106.25 422.929 L2113.1 422.929 Q2118.7 422.929 2121.67 420.71 Q2124.65 418.453 2124.65 414.24 Q2124.65 409.914 2121.56 407.62 Q2118.51 405.288 2112.8 405.288 Q2109.67 405.288 2106.1 405.965 Q2102.53 406.642 2098.24 408.071 L2098.24 401.3 Q2102.56 400.097 2106.33 399.495 Q2110.13 398.893 2113.47 398.893 Q2122.12 398.893 2127.17 402.843 Q2132.21 406.755 2132.21 413.45 Q2132.21 418.114 2129.54 421.349 Q2126.86 424.547 2121.94 425.788 Z" fill="#000000" fill-rule="nonzero" fill-opacity="1" /><path clip-path="url(#clip780)" d="M2174.67 420.334 L2174.67 397.539 L2181.6 397.539 L2181.6 456.068 L2174.67 456.068 L2174.67 449.749 Q2172.49 453.511 2169.14 455.354 Q2165.83 457.159 2161.17 457.159 Q2153.53 457.159 2148.72 451.066 Q2143.94 444.972 2143.94 435.041 Q2143.94 425.111 2148.72 419.017 Q2153.53 412.923 2161.17 412.923 Q2165.83 412.923 2169.14 414.767 Q2172.49 416.572 2174.67 420.334 M2151.09 435.041 Q2151.09 442.677 2154.21 447.041 Q2157.37 451.367 2162.86 451.367 Q2168.35 451.367 2171.51 447.041 Q2174.67 442.677 2174.67 435.041 Q2174.67 427.405 2171.51 423.08 Q2168.35 418.716 2162.86 418.716 Q2157.37 418.716 2154.21 423.08 Q2151.09 427.405 2151.09 435.041 Z" fill="#000000" fill-rule="nonzero" fill-opacity="1" /><path clip-path="url(#clip780)" d="M2230.87 413.939 L2215.64 434.44 L2231.66 456.068 L2223.5 456.068 L2211.24 439.518 L2198.97 456.068 L2190.81 456.068 L2207.17 434.026 L2192.2 413.939 L2200.37 413.939 L2211.54 428.948 L2222.71 413.939 L2230.87 413.939 Z" fill="#000000" fill-rule="nonzero" fill-opacity="1" /><polyline clip-path="url(#clip780)" style="stroke:#e26f46; stroke-linecap:round; stroke-linejoin:round; stroke-width:19.5; stroke-opacity:1; fill:none" points="1703.39,512.228 1841.8,512.228 "/>
<path clip-path="url(#clip780)" d="M1865.96 533.914 L1878.38 533.914 L1878.38 491.07 L1864.87 493.778 L1864.87 486.857 L1878.3 484.148 L1885.9 484.148 L1885.9 533.914 L1898.31 533.914 L1898.31 540.308 L1865.96 540.308 L1865.96 533.914 Z" fill="#000000" fill-rule="nonzero" fill-opacity="1" /><path clip-path="url(#clip780)" d="M1929.91 489.151 Q1924.04 489.151 1921.07 494.944 Q1918.14 500.699 1918.14 512.285 Q1918.14 523.833 1921.07 529.626 Q1924.04 535.381 1929.91 535.381 Q1935.82 535.381 1938.75 529.626 Q1941.72 523.833 1941.72 512.285 Q1941.72 500.699 1938.75 494.944 Q1935.82 489.151 1929.91 489.151 M1929.91 483.133 Q1939.35 483.133 1944.32 490.618 Q1949.32 498.066 1949.32 512.285 Q1949.32 526.466 1944.32 533.951 Q1939.35 541.399 1929.91 541.399 Q1920.47 541.399 1915.47 533.951 Q1910.5 526.466 1910.5 512.285 Q1910.5 498.066 1915.47 490.618 Q1920.47 483.133 1929.91 483.133 Z" fill="#000000" fill-rule="nonzero" fill-opacity="1" /><path clip-path="url(#clip780)" d="M1996.71 514.88 L1996.71 540.308 L1989.79 540.308 L1989.79 515.106 Q1989.79 509.125 1987.46 506.154 Q1985.13 503.182 1980.46 503.182 Q1974.86 503.182 1971.63 506.755 Q1968.39 510.329 1968.39 516.498 L1968.39 540.308 L1961.43 540.308 L1961.43 498.179 L1968.39 498.179 L1968.39 504.724 Q1970.87 500.925 1974.22 499.044 Q1977.61 497.163 1982.01 497.163 Q1989.27 497.163 1992.99 501.677 Q1996.71 506.154 1996.71 514.88 Z" fill="#000000" fill-rule="nonzero" fill-opacity="1" /><path clip-path="url(#clip780)" d="M2017.22 533.989 L2017.22 556.333 L2010.26 556.333 L2010.26 498.179 L2017.22 498.179 L2017.22 504.574 Q2019.4 500.812 2022.71 499.007 Q2026.05 497.163 2030.68 497.163 Q2038.36 497.163 2043.13 503.257 Q2047.95 509.351 2047.95 519.281 Q2047.95 529.212 2043.13 535.306 Q2038.36 541.399 2030.68 541.399 Q2026.05 541.399 2022.71 539.594 Q2019.4 537.751 2017.22 533.989 M2040.76 519.281 Q2040.76 511.645 2037.6 507.32 Q2034.48 502.956 2028.99 502.956 Q2023.5 502.956 2020.34 507.32 Q2017.22 511.645 2017.22 519.281 Q2017.22 526.917 2020.34 531.281 Q2023.5 535.607 2028.99 535.607 Q2034.48 535.607 2037.6 531.281 Q2040.76 526.917 2040.76 519.281 Z" fill="#000000" fill-rule="nonzero" fill-opacity="1" /><path clip-path="url(#clip780)" d="M2091.43 553.098 L2091.43 558.477 L2051.41 558.477 L2051.41 553.098 L2091.43 553.098 Z" fill="#000000" fill-rule="nonzero" fill-opacity="1" /><path clip-path="url(#clip780)" d="M2119.79 490.769 L2100.61 520.748 L2119.79 520.748 L2119.79 490.769 M2117.8 484.148 L2127.35 484.148 L2127.35 520.748 L2135.37 520.748 L2135.37 527.068 L2127.35 527.068 L2127.35 540.308 L2119.79 540.308 L2119.79 527.068 L2094.44 527.068 L2094.44 519.733 L2117.8 484.148 Z" fill="#000000" fill-rule="nonzero" fill-opacity="1" /><path clip-path="url(#clip780)" d="M2174.67 504.574 L2174.67 481.779 L2181.6 481.779 L2181.6 540.308 L2174.67 540.308 L2174.67 533.989 Q2172.49 537.751 2169.14 539.594 Q2165.83 541.399 2161.17 541.399 Q2153.53 541.399 2148.72 535.306 Q2143.94 529.212 2143.94 519.281 Q2143.94 509.351 2148.72 503.257 Q2153.53 497.163 2161.17 497.163 Q2165.83 497.163 2169.14 499.007 Q2172.49 500.812 2174.67 504.574 M2151.09 519.281 Q2151.09 526.917 2154.21 531.281 Q2157.37 535.607 2162.86 535.607 Q2168.35 535.607 2171.51 531.281 Q2174.67 526.917 2174.67 519.281 Q2174.67 511.645 2171.51 507.32 Q2168.35 502.956 2162.86 502.956 Q2157.37 502.956 2154.21 507.32 Q2151.09 511.645 2151.09 519.281 Z" fill="#000000" fill-rule="nonzero" fill-opacity="1" /><path clip-path="url(#clip780)" d="M2230.87 498.179 L2215.64 518.68 L2231.66 540.308 L2223.5 540.308 L2211.24 523.758 L2198.97 540.308 L2190.81 540.308 L2207.17 518.266 L2192.2 498.179 L2200.37 498.179 L2211.54 513.188 L2222.71 498.179 L2230.87 498.179 Z" fill="#000000" fill-rule="nonzero" fill-opacity="1" /><polyline clip-path="url(#clip780)" style="stroke:#3da44d; stroke-linecap:round; stroke-linejoin:round; stroke-width:19.5; stroke-opacity:1; fill:none" points="1703.39,596.468 1841.8,596.468 "/>
<path clip-path="url(#clip780)" d="M1865.96 618.154 L1878.38 618.154 L1878.38 575.31 L1864.87 578.018 L1864.87 571.097 L1878.3 568.388 L1885.9 568.388 L1885.9 618.154 L1898.31 618.154 L1898.31 624.548 L1865.96 624.548 L1865.96 618.154 Z" fill="#000000" fill-rule="nonzero" fill-opacity="1" /><path clip-path="url(#clip780)" d="M1929.91 573.391 Q1924.04 573.391 1921.07 579.184 Q1918.14 584.939 1918.14 596.525 Q1918.14 608.073 1921.07 613.866 Q1924.04 619.621 1929.91 619.621 Q1935.82 619.621 1938.75 613.866 Q1941.72 608.073 1941.72 596.525 Q1941.72 584.939 1938.75 579.184 Q1935.82 573.391 1929.91 573.391 M1929.91 567.373 Q1939.35 567.373 1944.32 574.858 Q1949.32 582.306 1949.32 596.525 Q1949.32 610.706 1944.32 618.191 Q1939.35 625.639 1929.91 625.639 Q1920.47 625.639 1915.47 618.191 Q1910.5 610.706 1910.5 596.525 Q1910.5 582.306 1915.47 574.858 Q1920.47 567.373 1929.91 567.373 Z" fill="#000000" fill-rule="nonzero" fill-opacity="1" /><path clip-path="url(#clip780)" d="M1996.71 599.12 L1996.71 624.548 L1989.79 624.548 L1989.79 599.346 Q1989.79 593.365 1987.46 590.394 Q1985.13 587.422 1980.46 587.422 Q1974.86 587.422 1971.63 590.995 Q1968.39 594.569 1968.39 600.738 L1968.39 624.548 L1961.43 624.548 L1961.43 582.419 L1968.39 582.419 L1968.39 588.964 Q1970.87 585.165 1974.22 583.284 Q1977.61 581.403 1982.01 581.403 Q1989.27 581.403 1992.99 585.917 Q1996.71 590.394 1996.71 599.12 Z" fill="#000000" fill-rule="nonzero" fill-opacity="1" /><path clip-path="url(#clip780)" d="M2017.22 618.229 L2017.22 640.573 L2010.26 640.573 L2010.26 582.419 L2017.22 582.419 L2017.22 588.814 Q2019.4 585.052 2022.71 583.247 Q2026.05 581.403 2030.68 581.403 Q2038.36 581.403 2043.13 587.497 Q2047.95 593.591 2047.95 603.521 Q2047.95 613.452 2043.13 619.546 Q2038.36 625.639 2030.68 625.639 Q2026.05 625.639 2022.71 623.834 Q2019.4 621.991 2017.22 618.229 M2040.76 603.521 Q2040.76 595.885 2037.6 591.56 Q2034.48 587.196 2028.99 587.196 Q2023.5 587.196 2020.34 591.56 Q2017.22 595.885 2017.22 603.521 Q2017.22 611.157 2020.34 615.521 Q2023.5 619.847 2028.99 619.847 Q2034.48 619.847 2037.6 615.521 Q2040.76 611.157 2040.76 603.521 Z" fill="#000000" fill-rule="nonzero" fill-opacity="1" /><path clip-path="url(#clip780)" d="M2091.43 637.338 L2091.43 642.717 L2051.41 642.717 L2051.41 637.338 L2091.43 637.338 Z" fill="#000000" fill-rule="nonzero" fill-opacity="1" /><path clip-path="url(#clip780)" d="M2098.99 568.388 L2128.82 568.388 L2128.82 574.783 L2105.95 574.783 L2105.95 588.55 Q2107.61 587.986 2109.26 587.723 Q2110.92 587.422 2112.57 587.422 Q2121.97 587.422 2127.47 592.575 Q2132.96 597.729 2132.96 606.531 Q2132.96 615.596 2127.32 620.636 Q2121.67 625.639 2111.4 625.639 Q2107.87 625.639 2104.18 625.037 Q2100.53 624.436 2096.62 623.232 L2096.62 615.596 Q2100.01 617.439 2103.62 618.342 Q2107.23 619.245 2111.25 619.245 Q2117.76 619.245 2121.56 615.822 Q2125.36 612.399 2125.36 606.531 Q2125.36 600.663 2121.56 597.24 Q2117.76 593.817 2111.25 593.817 Q2108.21 593.817 2105.16 594.494 Q2102.15 595.171 2098.99 596.6 L2098.99 568.388 Z" fill="#000000" fill-rule="nonzero" fill-opacity="1" /><path clip-path="url(#clip780)" d="M2174.67 588.814 L2174.67 566.019 L2181.6 566.019 L2181.6 624.548 L2174.67 624.548 L2174.67 618.229 Q2172.49 621.991 2169.14 623.834 Q2165.83 625.639 2161.17 625.639 Q2153.53 625.639 2148.72 619.546 Q2143.94 613.452 2143.94 603.521 Q2143.94 593.591 2148.72 587.497 Q2153.53 581.403 2161.17 581.403 Q2165.83 581.403 2169.14 583.247 Q2172.49 585.052 2174.67 588.814 M2151.09 603.521 Q2151.09 611.157 2154.21 615.521 Q2157.37 619.847 2162.86 619.847 Q2168.35 619.847 2171.51 615.521 Q2174.67 611.157 2174.67 603.521 Q2174.67 595.885 2171.51 591.56 Q2168.35 587.196 2162.86 587.196 Q2157.37 587.196 2154.21 591.56 Q2151.09 595.885 2151.09 603.521 Z" fill="#000000" fill-rule="nonzero" fill-opacity="1" /><path clip-path="url(#clip780)" d="M2230.87 582.419 L2215.64 602.92 L2231.66 624.548 L2223.5 624.548 L2211.24 607.998 L2198.97 624.548 L2190.81 624.548 L2207.17 602.506 L2192.2 582.419 L2200.37 582.419 L2211.54 597.428 L2222.71 582.419 L2230.87 582.419 Z" fill="#000000" fill-rule="nonzero" fill-opacity="1" /><polyline clip-path="url(#clip780)" style="stroke:#c271d2; stroke-linecap:round; stroke-linejoin:round; stroke-width:19.5; stroke-opacity:1; fill:none" points="1703.39,680.708 1841.8,680.708 "/>
<path clip-path="url(#clip780)" d="M1865.96 702.394 L1878.38 702.394 L1878.38 659.55 L1864.87 662.258 L1864.87 655.337 L1878.3 652.628 L1885.9 652.628 L1885.9 702.394 L1898.31 702.394 L1898.31 708.788 L1865.96 708.788 L1865.96 702.394 Z" fill="#000000" fill-rule="nonzero" fill-opacity="1" /><path clip-path="url(#clip780)" d="M1929.91 657.631 Q1924.04 657.631 1921.07 663.424 Q1918.14 669.179 1918.14 680.765 Q1918.14 692.313 1921.07 698.106 Q1924.04 703.861 1929.91 703.861 Q1935.82 703.861 1938.75 698.106 Q1941.72 692.313 1941.72 680.765 Q1941.72 669.179 1938.75 663.424 Q1935.82 657.631 1929.91 657.631 M1929.91 651.613 Q1939.35 651.613 1944.32 659.098 Q1949.32 666.546 1949.32 680.765 Q1949.32 694.946 1944.32 702.431 Q1939.35 709.879 1929.91 709.879 Q1920.47 709.879 1915.47 702.431 Q1910.5 694.946 1910.5 680.765 Q1910.5 666.546 1915.47 659.098 Q1920.47 651.613 1929.91 651.613 Z" fill="#000000" fill-rule="nonzero" fill-opacity="1" /><path clip-path="url(#clip780)" d="M1978.92 657.631 Q1973.05 657.631 1970.08 663.424 Q1967.15 669.179 1967.15 680.765 Q1967.15 692.313 1970.08 698.106 Q1973.05 703.861 1978.92 703.861 Q1984.83 703.861 1987.76 698.106 Q1990.73 692.313 1990.73 680.765 Q1990.73 669.179 1987.76 663.424 Q1984.83 657.631 1978.92 657.631 M1978.92 651.613 Q1988.36 651.613 1993.33 659.098 Q1998.33 666.546 1998.33 680.765 Q1998.33 694.946 1993.33 702.431 Q1988.36 709.879 1978.92 709.879 Q1969.48 709.879 1964.48 702.431 Q1959.51 694.946 1959.51 680.765 Q1959.51 666.546 1964.48 659.098 Q1969.48 651.613 1978.92 651.613 Z" fill="#000000" fill-rule="nonzero" fill-opacity="1" /><path clip-path="url(#clip780)" d="M2045.73 683.36 L2045.73 708.788 L2038.81 708.788 L2038.81 683.586 Q2038.81 677.605 2036.47 674.634 Q2034.14 671.662 2029.48 671.662 Q2023.87 671.662 2020.64 675.235 Q2017.4 678.809 2017.4 684.978 L2017.4 708.788 L2010.44 708.788 L2010.44 666.659 L2017.4 666.659 L2017.4 673.204 Q2019.89 669.405 2023.23 667.524 Q2026.62 665.643 2031.02 665.643 Q2038.28 665.643 2042 670.157 Q2045.73 674.634 2045.73 683.36 Z" fill="#000000" fill-rule="nonzero" fill-opacity="1" /><path clip-path="url(#clip780)" d="M2066.23 702.469 L2066.23 724.813 L2059.27 724.813 L2059.27 666.659 L2066.23 666.659 L2066.23 673.054 Q2068.41 669.292 2071.72 667.487 Q2075.07 665.643 2079.69 665.643 Q2087.37 665.643 2092.15 671.737 Q2096.96 677.831 2096.96 687.761 Q2096.96 697.692 2092.15 703.786 Q2087.37 709.879 2079.69 709.879 Q2075.07 709.879 2071.72 708.074 Q2068.41 706.231 2066.23 702.469 M2089.78 687.761 Q2089.78 680.125 2086.62 675.8 Q2083.49 671.436 2078 671.436 Q2072.51 671.436 2069.35 675.8 Q2066.23 680.125 2066.23 687.761 Q2066.23 695.397 2069.35 699.761 Q2072.51 704.087 2078 704.087 Q2083.49 704.087 2086.62 699.761 Q2089.78 695.397 2089.78 687.761 Z" fill="#000000" fill-rule="nonzero" fill-opacity="1" /><path clip-path="url(#clip780)" d="M2140.44 721.578 L2140.44 726.957 L2100.42 726.957 L2100.42 721.578 L2140.44 721.578 Z" fill="#000000" fill-rule="nonzero" fill-opacity="1" /><path clip-path="url(#clip780)" d="M2170.95 678.508 Q2176.4 679.674 2179.45 683.36 Q2182.54 687.047 2182.54 692.463 Q2182.54 700.776 2176.82 705.328 Q2171.1 709.879 2160.57 709.879 Q2157.03 709.879 2153.27 709.165 Q2149.55 708.488 2145.56 707.096 L2145.56 699.761 Q2148.72 701.604 2152.48 702.544 Q2156.24 703.485 2160.34 703.485 Q2167.49 703.485 2171.21 700.664 Q2174.97 697.842 2174.97 692.463 Q2174.97 687.498 2171.48 684.715 Q2168.02 681.893 2161.81 681.893 L2155.26 681.893 L2155.26 675.649 L2162.11 675.649 Q2167.71 675.649 2170.69 673.43 Q2173.66 671.173 2173.66 666.96 Q2173.66 662.634 2170.57 660.34 Q2167.53 658.008 2161.81 658.008 Q2158.69 658.008 2155.11 658.685 Q2151.54 659.362 2147.25 660.791 L2147.25 654.02 Q2151.58 652.817 2155.34 652.215 Q2159.14 651.613 2162.49 651.613 Q2171.14 651.613 2176.18 655.563 Q2181.22 659.475 2181.22 666.17 Q2181.22 670.834 2178.55 674.069 Q2175.88 677.267 2170.95 678.508 Z" fill="#000000" fill-rule="nonzero" fill-opacity="1" /><path clip-path="url(#clip780)" d="M2223.69 673.054 L2223.69 650.259 L2230.61 650.259 L2230.61 708.788 L2223.69 708.788 L2223.69 702.469 Q2221.51 706.231 2218.16 708.074 Q2214.85 709.879 2210.18 709.879 Q2202.55 709.879 2197.73 703.786 Q2192.96 697.692 2192.96 687.761 Q2192.96 677.831 2197.73 671.737 Q2202.55 665.643 2210.18 665.643 Q2214.85 665.643 2218.16 667.487 Q2221.51 669.292 2223.69 673.054 M2200.1 687.761 Q2200.1 695.397 2203.22 699.761 Q2206.38 704.087 2211.88 704.087 Q2217.37 704.087 2220.53 699.761 Q2223.69 695.397 2223.69 687.761 Q2223.69 680.125 2220.53 675.8 Q2217.37 671.436 2211.88 671.436 Q2206.38 671.436 2203.22 675.8 Q2200.1 680.125 2200.1 687.761 Z" fill="#000000" fill-rule="nonzero" fill-opacity="1" /><path clip-path="url(#clip780)" d="M2279.88 666.659 L2264.65 687.16 L2280.67 708.788 L2272.51 708.788 L2260.25 692.238 L2247.99 708.788 L2239.82 708.788 L2256.19 686.746 L2241.22 666.659 L2249.38 666.659 L2260.55 681.668 L2271.72 666.659 L2279.88 666.659 Z" fill="#000000" fill-rule="nonzero" fill-opacity="1" /><polyline clip-path="url(#clip780)" style="stroke:#ac8d18; stroke-linecap:round; stroke-linejoin:round; stroke-width:19.5; stroke-opacity:1; fill:none" points="1703.39,764.948 1841.8,764.948 "/>
<path clip-path="url(#clip780)" d="M1865.96 786.634 L1878.38 786.634 L1878.38 743.79 L1864.87 746.498 L1864.87 739.577 L1878.3 736.868 L1885.9 736.868 L1885.9 786.634 L1898.31 786.634 L1898.31 793.028 L1865.96 793.028 L1865.96 786.634 Z" fill="#000000" fill-rule="nonzero" fill-opacity="1" /><path clip-path="url(#clip780)" d="M1929.91 741.871 Q1924.04 741.871 1921.07 747.664 Q1918.14 753.419 1918.14 765.005 Q1918.14 776.553 1921.07 782.346 Q1924.04 788.101 1929.91 788.101 Q1935.82 788.101 1938.75 782.346 Q1941.72 776.553 1941.72 765.005 Q1941.72 753.419 1938.75 747.664 Q1935.82 741.871 1929.91 741.871 M1929.91 735.853 Q1939.35 735.853 1944.32 743.338 Q1949.32 750.786 1949.32 765.005 Q1949.32 779.186 1944.32 786.671 Q1939.35 794.119 1929.91 794.119 Q1920.47 794.119 1915.47 786.671 Q1910.5 779.186 1910.5 765.005 Q1910.5 750.786 1915.47 743.338 Q1920.47 735.853 1929.91 735.853 Z" fill="#000000" fill-rule="nonzero" fill-opacity="1" /><path clip-path="url(#clip780)" d="M1978.92 741.871 Q1973.05 741.871 1970.08 747.664 Q1967.15 753.419 1967.15 765.005 Q1967.15 776.553 1970.08 782.346 Q1973.05 788.101 1978.92 788.101 Q1984.83 788.101 1987.76 782.346 Q1990.73 776.553 1990.73 765.005 Q1990.73 753.419 1987.76 747.664 Q1984.83 741.871 1978.92 741.871 M1978.92 735.853 Q1988.36 735.853 1993.33 743.338 Q1998.33 750.786 1998.33 765.005 Q1998.33 779.186 1993.33 786.671 Q1988.36 794.119 1978.92 794.119 Q1969.48 794.119 1964.48 786.671 Q1959.51 779.186 1959.51 765.005 Q1959.51 750.786 1964.48 743.338 Q1969.48 735.853 1978.92 735.853 Z" fill="#000000" fill-rule="nonzero" fill-opacity="1" /><path clip-path="url(#clip780)" d="M2045.73 767.6 L2045.73 793.028 L2038.81 793.028 L2038.81 767.826 Q2038.81 761.845 2036.47 758.874 Q2034.14 755.902 2029.48 755.902 Q2023.87 755.902 2020.64 759.475 Q2017.4 763.049 2017.4 769.218 L2017.4 793.028 L2010.44 793.028 L2010.44 750.899 L2017.4 750.899 L2017.4 757.444 Q2019.89 753.645 2023.23 751.764 Q2026.62 749.883 2031.02 749.883 Q2038.28 749.883 2042 754.397 Q2045.73 758.874 2045.73 767.6 Z" fill="#000000" fill-rule="nonzero" fill-opacity="1" /><path clip-path="url(#clip780)" d="M2066.23 786.709 L2066.23 809.053 L2059.27 809.053 L2059.27 750.899 L2066.23 750.899 L2066.23 757.294 Q2068.41 753.532 2071.72 751.727 Q2075.07 749.883 2079.69 749.883 Q2087.37 749.883 2092.15 755.977 Q2096.96 762.071 2096.96 772.001 Q2096.96 781.932 2092.15 788.026 Q2087.37 794.119 2079.69 794.119 Q2075.07 794.119 2071.72 792.314 Q2068.41 790.471 2066.23 786.709 M2089.78 772.001 Q2089.78 764.365 2086.62 760.04 Q2083.49 755.676 2078 755.676 Q2072.51 755.676 2069.35 760.04 Q2066.23 764.365 2066.23 772.001 Q2066.23 779.637 2069.35 784.001 Q2072.51 788.327 2078 788.327 Q2083.49 788.327 2086.62 784.001 Q2089.78 779.637 2089.78 772.001 Z" fill="#000000" fill-rule="nonzero" fill-opacity="1" /><path clip-path="url(#clip780)" d="M2140.44 805.818 L2140.44 811.197 L2100.42 811.197 L2100.42 805.818 L2140.44 805.818 Z" fill="#000000" fill-rule="nonzero" fill-opacity="1" /><path clip-path="url(#clip780)" d="M2168.81 743.489 L2149.62 773.468 L2168.81 773.468 L2168.81 743.489 M2166.81 736.868 L2176.37 736.868 L2176.37 773.468 L2184.38 773.468 L2184.38 779.788 L2176.37 779.788 L2176.37 793.028 L2168.81 793.028 L2168.81 779.788 L2143.45 779.788 L2143.45 772.453 L2166.81 736.868 Z" fill="#000000" fill-rule="nonzero" fill-opacity="1" /><path clip-path="url(#clip780)" d="M2223.69 757.294 L2223.69 734.499 L2230.61 734.499 L2230.61 793.028 L2223.69 793.028 L2223.69 786.709 Q2221.51 790.471 2218.16 792.314 Q2214.85 794.119 2210.18 794.119 Q2202.55 794.119 2197.73 788.026 Q2192.96 781.932 2192.96 772.001 Q2192.96 762.071 2197.73 755.977 Q2202.55 749.883 2210.18 749.883 Q2214.85 749.883 2218.16 751.727 Q2221.51 753.532 2223.69 757.294 M2200.1 772.001 Q2200.1 779.637 2203.22 784.001 Q2206.38 788.327 2211.88 788.327 Q2217.37 788.327 2220.53 784.001 Q2223.69 779.637 2223.69 772.001 Q2223.69 764.365 2220.53 760.04 Q2217.37 755.676 2211.88 755.676 Q2206.38 755.676 2203.22 760.04 Q2200.1 764.365 2200.1 772.001 Z" fill="#000000" fill-rule="nonzero" fill-opacity="1" /><path clip-path="url(#clip780)" d="M2279.88 750.899 L2264.65 771.4 L2280.67 793.028 L2272.51 793.028 L2260.25 776.478 L2247.99 793.028 L2239.82 793.028 L2256.19 770.986 L2241.22 750.899 L2249.38 750.899 L2260.55 765.908 L2271.72 750.899 L2279.88 750.899 Z" fill="#000000" fill-rule="nonzero" fill-opacity="1" /><polyline clip-path="url(#clip780)" style="stroke:#00a9ad; stroke-linecap:round; stroke-linejoin:round; stroke-width:19.5; stroke-opacity:1; fill:none" points="1703.39,849.188 1841.8,849.188 "/>
<path clip-path="url(#clip780)" d="M1865.96 870.874 L1878.38 870.874 L1878.38 828.03 L1864.87 830.738 L1864.87 823.817 L1878.3 821.108 L1885.9 821.108 L1885.9 870.874 L1898.31 870.874 L1898.31 877.268 L1865.96 877.268 L1865.96 870.874 Z" fill="#000000" fill-rule="nonzero" fill-opacity="1" /><path clip-path="url(#clip780)" d="M1929.91 826.111 Q1924.04 826.111 1921.07 831.904 Q1918.14 837.659 1918.14 849.245 Q1918.14 860.793 1921.07 866.586 Q1924.04 872.341 1929.91 872.341 Q1935.82 872.341 1938.75 866.586 Q1941.72 860.793 1941.72 849.245 Q1941.72 837.659 1938.75 831.904 Q1935.82 826.111 1929.91 826.111 M1929.91 820.093 Q1939.35 820.093 1944.32 827.578 Q1949.32 835.026 1949.32 849.245 Q1949.32 863.426 1944.32 870.911 Q1939.35 878.359 1929.91 878.359 Q1920.47 878.359 1915.47 870.911 Q1910.5 863.426 1910.5 849.245 Q1910.5 835.026 1915.47 827.578 Q1920.47 820.093 1929.91 820.093 Z" fill="#000000" fill-rule="nonzero" fill-opacity="1" /><path clip-path="url(#clip780)" d="M1978.92 826.111 Q1973.05 826.111 1970.08 831.904 Q1967.15 837.659 1967.15 849.245 Q1967.15 860.793 1970.08 866.586 Q1973.05 872.341 1978.92 872.341 Q1984.83 872.341 1987.76 866.586 Q1990.73 860.793 1990.73 849.245 Q1990.73 837.659 1987.76 831.904 Q1984.83 826.111 1978.92 826.111 M1978.92 820.093 Q1988.36 820.093 1993.33 827.578 Q1998.33 835.026 1998.33 849.245 Q1998.33 863.426 1993.33 870.911 Q1988.36 878.359 1978.92 878.359 Q1969.48 878.359 1964.48 870.911 Q1959.51 863.426 1959.51 849.245 Q1959.51 835.026 1964.48 827.578 Q1969.48 820.093 1978.92 820.093 Z" fill="#000000" fill-rule="nonzero" fill-opacity="1" /><path clip-path="url(#clip780)" d="M2045.73 851.84 L2045.73 877.268 L2038.81 877.268 L2038.81 852.066 Q2038.81 846.085 2036.47 843.114 Q2034.14 840.142 2029.48 840.142 Q2023.87 840.142 2020.64 843.715 Q2017.4 847.289 2017.4 853.458 L2017.4 877.268 L2010.44 877.268 L2010.44 835.139 L2017.4 835.139 L2017.4 841.684 Q2019.89 837.885 2023.23 836.004 Q2026.62 834.123 2031.02 834.123 Q2038.28 834.123 2042 838.637 Q2045.73 843.114 2045.73 851.84 Z" fill="#000000" fill-rule="nonzero" fill-opacity="1" /><path clip-path="url(#clip780)" d="M2066.23 870.949 L2066.23 893.293 L2059.27 893.293 L2059.27 835.139 L2066.23 835.139 L2066.23 841.534 Q2068.41 837.772 2071.72 835.967 Q2075.07 834.123 2079.69 834.123 Q2087.37 834.123 2092.15 840.217 Q2096.96 846.311 2096.96 856.241 Q2096.96 866.172 2092.15 872.266 Q2087.37 878.359 2079.69 878.359 Q2075.07 878.359 2071.72 876.554 Q2068.41 874.711 2066.23 870.949 M2089.78 856.241 Q2089.78 848.605 2086.62 844.28 Q2083.49 839.916 2078 839.916 Q2072.51 839.916 2069.35 844.28 Q2066.23 848.605 2066.23 856.241 Q2066.23 863.877 2069.35 868.241 Q2072.51 872.567 2078 872.567 Q2083.49 872.567 2086.62 868.241 Q2089.78 863.877 2089.78 856.241 Z" fill="#000000" fill-rule="nonzero" fill-opacity="1" /><path clip-path="url(#clip780)" d="M2140.44 890.058 L2140.44 895.437 L2100.42 895.437 L2100.42 890.058 L2140.44 890.058 Z" fill="#000000" fill-rule="nonzero" fill-opacity="1" /><path clip-path="url(#clip780)" d="M2148 821.108 L2177.83 821.108 L2177.83 827.503 L2154.96 827.503 L2154.96 841.27 Q2156.62 840.706 2158.27 840.443 Q2159.93 840.142 2161.58 840.142 Q2170.99 840.142 2176.48 845.295 Q2181.97 850.449 2181.97 859.251 Q2181.97 868.316 2176.33 873.356 Q2170.69 878.359 2160.42 878.359 Q2156.88 878.359 2153.2 877.757 Q2149.55 877.156 2145.63 875.952 L2145.63 868.316 Q2149.02 870.159 2152.63 871.062 Q2156.24 871.965 2160.27 871.965 Q2166.77 871.965 2170.57 868.542 Q2174.37 865.119 2174.37 859.251 Q2174.37 853.383 2170.57 849.96 Q2166.77 846.537 2160.27 846.537 Q2157.22 846.537 2154.17 847.214 Q2151.16 847.891 2148 849.32 L2148 821.108 Z" fill="#000000" fill-rule="nonzero" fill-opacity="1" /><path clip-path="url(#clip780)" d="M2223.69 841.534 L2223.69 818.739 L2230.61 818.739 L2230.61 877.268 L2223.69 877.268 L2223.69 870.949 Q2221.51 874.711 2218.16 876.554 Q2214.85 878.359 2210.18 878.359 Q2202.55 878.359 2197.73 872.266 Q2192.96 866.172 2192.96 856.241 Q2192.96 846.311 2197.73 840.217 Q2202.55 834.123 2210.18 834.123 Q2214.85 834.123 2218.16 835.967 Q2221.51 837.772 2223.69 841.534 M2200.1 856.241 Q2200.1 863.877 2203.22 868.241 Q2206.38 872.567 2211.88 872.567 Q2217.37 872.567 2220.53 868.241 Q2223.69 863.877 2223.69 856.241 Q2223.69 848.605 2220.53 844.28 Q2217.37 839.916 2211.88 839.916 Q2206.38 839.916 2203.22 844.28 Q2200.1 848.605 2200.1 856.241 Z" fill="#000000" fill-rule="nonzero" fill-opacity="1" /><path clip-path="url(#clip780)" d="M2279.88 835.139 L2264.65 855.64 L2280.67 877.268 L2272.51 877.268 L2260.25 860.718 L2247.99 877.268 L2239.82 877.268 L2256.19 855.226 L2241.22 835.139 L2249.38 835.139 L2260.55 850.148 L2271.72 835.139 L2279.88 835.139 Z" fill="#000000" fill-rule="nonzero" fill-opacity="1" /><polyline clip-path="url(#clip780)" style="stroke:#ed5d92; stroke-linecap:round; stroke-linejoin:round; stroke-width:19.5; stroke-opacity:1; fill:none" points="1703.39,933.428 1841.8,933.428 "/>
<path clip-path="url(#clip780)" d="M1865.96 955.114 L1878.38 955.114 L1878.38 912.27 L1864.87 914.978 L1864.87 908.057 L1878.3 905.348 L1885.9 905.348 L1885.9 955.114 L1898.31 955.114 L1898.31 961.508 L1865.96 961.508 L1865.96 955.114 Z" fill="#000000" fill-rule="nonzero" fill-opacity="1" /><path clip-path="url(#clip780)" d="M1929.91 910.351 Q1924.04 910.351 1921.07 916.144 Q1918.14 921.899 1918.14 933.485 Q1918.14 945.033 1921.07 950.826 Q1924.04 956.581 1929.91 956.581 Q1935.82 956.581 1938.75 950.826 Q1941.72 945.033 1941.72 933.485 Q1941.72 921.899 1938.75 916.144 Q1935.82 910.351 1929.91 910.351 M1929.91 904.333 Q1939.35 904.333 1944.32 911.818 Q1949.32 919.266 1949.32 933.485 Q1949.32 947.666 1944.32 955.151 Q1939.35 962.599 1929.91 962.599 Q1920.47 962.599 1915.47 955.151 Q1910.5 947.666 1910.5 933.485 Q1910.5 919.266 1915.47 911.818 Q1920.47 904.333 1929.91 904.333 Z" fill="#000000" fill-rule="nonzero" fill-opacity="1" /><path clip-path="url(#clip780)" d="M1978.92 910.351 Q1973.05 910.351 1970.08 916.144 Q1967.15 921.899 1967.15 933.485 Q1967.15 945.033 1970.08 950.826 Q1973.05 956.581 1978.92 956.581 Q1984.83 956.581 1987.76 950.826 Q1990.73 945.033 1990.73 933.485 Q1990.73 921.899 1987.76 916.144 Q1984.83 910.351 1978.92 910.351 M1978.92 904.333 Q1988.36 904.333 1993.33 911.818 Q1998.33 919.266 1998.33 933.485 Q1998.33 947.666 1993.33 955.151 Q1988.36 962.599 1978.92 962.599 Q1969.48 962.599 1964.48 955.151 Q1959.51 947.666 1959.51 933.485 Q1959.51 919.266 1964.48 911.818 Q1969.48 904.333 1978.92 904.333 Z" fill="#000000" fill-rule="nonzero" fill-opacity="1" /><path clip-path="url(#clip780)" d="M2027.94 910.351 Q2022.07 910.351 2019.1 916.144 Q2016.16 921.899 2016.16 933.485 Q2016.16 945.033 2019.1 950.826 Q2022.07 956.581 2027.94 956.581 Q2033.84 956.581 2036.78 950.826 Q2039.75 945.033 2039.75 933.485 Q2039.75 921.899 2036.78 916.144 Q2033.84 910.351 2027.94 910.351 M2027.94 904.333 Q2037.38 904.333 2042.34 911.818 Q2047.35 919.266 2047.35 933.485 Q2047.35 947.666 2042.34 955.151 Q2037.38 962.599 2027.94 962.599 Q2018.49 962.599 2013.49 955.151 Q2008.53 947.666 2008.53 933.485 Q2008.53 919.266 2013.49 911.818 Q2018.49 904.333 2027.94 904.333 Z" fill="#000000" fill-rule="nonzero" fill-opacity="1" /><path clip-path="url(#clip780)" d="M2094.74 936.08 L2094.74 961.508 L2087.82 961.508 L2087.82 936.306 Q2087.82 930.325 2085.49 927.354 Q2083.16 924.382 2078.49 924.382 Q2072.89 924.382 2069.65 927.955 Q2066.42 931.529 2066.42 937.698 L2066.42 961.508 L2059.46 961.508 L2059.46 919.379 L2066.42 919.379 L2066.42 925.924 Q2068.9 922.125 2072.25 920.244 Q2075.63 918.363 2080.03 918.363 Q2087.29 918.363 2091.02 922.877 Q2094.74 927.354 2094.74 936.08 Z" fill="#000000" fill-rule="nonzero" fill-opacity="1" /><path clip-path="url(#clip780)" d="M2115.24 955.189 L2115.24 977.533 L2108.28 977.533 L2108.28 919.379 L2115.24 919.379 L2115.24 925.774 Q2117.42 922.012 2120.73 920.207 Q2124.08 918.363 2128.71 918.363 Q2136.38 918.363 2141.16 924.457 Q2145.97 930.551 2145.97 940.481 Q2145.97 950.412 2141.16 956.506 Q2136.38 962.599 2128.71 962.599 Q2124.08 962.599 2120.73 960.794 Q2117.42 958.951 2115.24 955.189 M2138.79 940.481 Q2138.79 932.845 2135.63 928.52 Q2132.51 924.156 2127.01 924.156 Q2121.52 924.156 2118.36 928.52 Q2115.24 932.845 2115.24 940.481 Q2115.24 948.117 2118.36 952.481 Q2121.52 956.807 2127.01 956.807 Q2132.51 956.807 2135.63 952.481 Q2138.79 948.117 2138.79 940.481 Z" fill="#000000" fill-rule="nonzero" fill-opacity="1" /><path clip-path="url(#clip780)" d="M2189.46 974.298 L2189.46 979.677 L2149.43 979.677 L2149.43 974.298 L2189.46 974.298 Z" fill="#000000" fill-rule="nonzero" fill-opacity="1" /><path clip-path="url(#clip780)" d="M2219.96 931.228 Q2225.42 932.394 2228.46 936.08 Q2231.55 939.767 2231.55 945.183 Q2231.55 953.496 2225.83 958.048 Q2220.11 962.599 2209.58 962.599 Q2206.05 962.599 2202.28 961.885 Q2198.56 961.208 2194.57 959.816 L2194.57 952.481 Q2197.73 954.324 2201.49 955.264 Q2205.26 956.205 2209.36 956.205 Q2216.5 956.205 2220.23 953.384 Q2223.99 950.562 2223.99 945.183 Q2223.99 940.218 2220.49 937.435 Q2217.03 934.613 2210.82 934.613 L2204.28 934.613 L2204.28 928.369 L2211.12 928.369 Q2216.73 928.369 2219.7 926.15 Q2222.67 923.893 2222.67 919.68 Q2222.67 915.354 2219.59 913.06 Q2216.54 910.728 2210.82 910.728 Q2207.7 910.728 2204.13 911.405 Q2200.55 912.082 2196.27 913.511 L2196.27 906.74 Q2200.59 905.537 2204.35 904.935 Q2208.15 904.333 2211.5 904.333 Q2220.15 904.333 2225.19 908.283 Q2230.23 912.195 2230.23 918.89 Q2230.23 923.554 2227.56 926.789 Q2224.89 929.987 2219.96 931.228 Z" fill="#000000" fill-rule="nonzero" fill-opacity="1" /><path clip-path="url(#clip780)" d="M2272.7 925.774 L2272.7 902.979 L2279.62 902.979 L2279.62 961.508 L2272.7 961.508 L2272.7 955.189 Q2270.52 958.951 2267.17 960.794 Q2263.86 962.599 2259.2 962.599 Q2251.56 962.599 2246.75 956.506 Q2241.97 950.412 2241.97 940.481 Q2241.97 930.551 2246.75 924.457 Q2251.56 918.363 2259.2 918.363 Q2263.86 918.363 2267.17 920.207 Q2270.52 922.012 2272.7 925.774 M2249.12 940.481 Q2249.12 948.117 2252.24 952.481 Q2255.4 956.807 2260.89 956.807 Q2266.38 956.807 2269.54 952.481 Q2272.7 948.117 2272.7 940.481 Q2272.7 932.845 2269.54 928.52 Q2266.38 924.156 2260.89 924.156 Q2255.4 924.156 2252.24 928.52 Q2249.12 932.845 2249.12 940.481 Z" fill="#000000" fill-rule="nonzero" fill-opacity="1" /><path clip-path="url(#clip780)" d="M2328.9 919.379 L2313.66 939.88 L2329.69 961.508 L2321.52 961.508 L2309.26 944.958 L2297 961.508 L2288.84 961.508 L2305.2 939.466 L2290.23 919.379 L2298.39 919.379 L2309.56 934.388 L2320.73 919.379 L2328.9 919.379 Z" fill="#000000" fill-rule="nonzero" fill-opacity="1" /><polyline clip-path="url(#clip780)" style="stroke:#c68125; stroke-linecap:round; stroke-linejoin:round; stroke-width:19.5; stroke-opacity:1; fill:none" points="1703.39,1017.67 1841.8,1017.67 "/>
<path clip-path="url(#clip780)" d="M1865.96 1039.35 L1878.38 1039.35 L1878.38 996.51 L1864.87 999.218 L1864.87 992.297 L1878.3 989.588 L1885.9 989.588 L1885.9 1039.35 L1898.31 1039.35 L1898.31 1045.75 L1865.96 1045.75 L1865.96 1039.35 Z" fill="#000000" fill-rule="nonzero" fill-opacity="1" /><path clip-path="url(#clip780)" d="M1929.91 994.591 Q1924.04 994.591 1921.07 1000.38 Q1918.14 1006.14 1918.14 1017.72 Q1918.14 1029.27 1921.07 1035.07 Q1924.04 1040.82 1929.91 1040.82 Q1935.82 1040.82 1938.75 1035.07 Q1941.72 1029.27 1941.72 1017.72 Q1941.72 1006.14 1938.75 1000.38 Q1935.82 994.591 1929.91 994.591 M1929.91 988.573 Q1939.35 988.573 1944.32 996.058 Q1949.32 1003.51 1949.32 1017.72 Q1949.32 1031.91 1944.32 1039.39 Q1939.35 1046.84 1929.91 1046.84 Q1920.47 1046.84 1915.47 1039.39 Q1910.5 1031.91 1910.5 1017.72 Q1910.5 1003.51 1915.47 996.058 Q1920.47 988.573 1929.91 988.573 Z" fill="#000000" fill-rule="nonzero" fill-opacity="1" /><path clip-path="url(#clip780)" d="M1978.92 994.591 Q1973.05 994.591 1970.08 1000.38 Q1967.15 1006.14 1967.15 1017.72 Q1967.15 1029.27 1970.08 1035.07 Q1973.05 1040.82 1978.92 1040.82 Q1984.83 1040.82 1987.76 1035.07 Q1990.73 1029.27 1990.73 1017.72 Q1990.73 1006.14 1987.76 1000.38 Q1984.83 994.591 1978.92 994.591 M1978.92 988.573 Q1988.36 988.573 1993.33 996.058 Q1998.33 1003.51 1998.33 1017.72 Q1998.33 1031.91 1993.33 1039.39 Q1988.36 1046.84 1978.92 1046.84 Q1969.48 1046.84 1964.48 1039.39 Q1959.51 1031.91 1959.51 1017.72 Q1959.51 1003.51 1964.48 996.058 Q1969.48 988.573 1978.92 988.573 Z" fill="#000000" fill-rule="nonzero" fill-opacity="1" /><path clip-path="url(#clip780)" d="M2027.94 994.591 Q2022.07 994.591 2019.1 1000.38 Q2016.16 1006.14 2016.16 1017.72 Q2016.16 1029.27 2019.1 1035.07 Q2022.07 1040.82 2027.94 1040.82 Q2033.84 1040.82 2036.78 1035.07 Q2039.75 1029.27 2039.75 1017.72 Q2039.75 1006.14 2036.78 1000.38 Q2033.84 994.591 2027.94 994.591 M2027.94 988.573 Q2037.38 988.573 2042.34 996.058 Q2047.35 1003.51 2047.35 1017.72 Q2047.35 1031.91 2042.34 1039.39 Q2037.38 1046.84 2027.94 1046.84 Q2018.49 1046.84 2013.49 1039.39 Q2008.53 1031.91 2008.53 1017.72 Q2008.53 1003.51 2013.49 996.058 Q2018.49 988.573 2027.94 988.573 Z" fill="#000000" fill-rule="nonzero" fill-opacity="1" /><path clip-path="url(#clip780)" d="M2094.74 1020.32 L2094.74 1045.75 L2087.82 1045.75 L2087.82 1020.55 Q2087.82 1014.57 2085.49 1011.59 Q2083.16 1008.62 2078.49 1008.62 Q2072.89 1008.62 2069.65 1012.2 Q2066.42 1015.77 2066.42 1021.94 L2066.42 1045.75 L2059.46 1045.75 L2059.46 1003.62 L2066.42 1003.62 L2066.42 1010.16 Q2068.9 1006.37 2072.25 1004.48 Q2075.63 1002.6 2080.03 1002.6 Q2087.29 1002.6 2091.02 1007.12 Q2094.74 1011.59 2094.74 1020.32 Z" fill="#000000" fill-rule="nonzero" fill-opacity="1" /><path clip-path="url(#clip780)" d="M2115.24 1039.43 L2115.24 1061.77 L2108.28 1061.77 L2108.28 1003.62 L2115.24 1003.62 L2115.24 1010.01 Q2117.42 1006.25 2120.73 1004.45 Q2124.08 1002.6 2128.71 1002.6 Q2136.38 1002.6 2141.16 1008.7 Q2145.97 1014.79 2145.97 1024.72 Q2145.97 1034.65 2141.16 1040.75 Q2136.38 1046.84 2128.71 1046.84 Q2124.08 1046.84 2120.73 1045.03 Q2117.42 1043.19 2115.24 1039.43 M2138.79 1024.72 Q2138.79 1017.09 2135.63 1012.76 Q2132.51 1008.4 2127.01 1008.4 Q2121.52 1008.4 2118.36 1012.76 Q2115.24 1017.09 2115.24 1024.72 Q2115.24 1032.36 2118.36 1036.72 Q2121.52 1041.05 2127.01 1041.05 Q2132.51 1041.05 2135.63 1036.72 Q2138.79 1032.36 2138.79 1024.72 Z" fill="#000000" fill-rule="nonzero" fill-opacity="1" /><path clip-path="url(#clip780)" d="M2189.46 1058.54 L2189.46 1063.92 L2149.43 1063.92 L2149.43 1058.54 L2189.46 1058.54 Z" fill="#000000" fill-rule="nonzero" fill-opacity="1" /><path clip-path="url(#clip780)" d="M2217.82 996.209 L2198.63 1026.19 L2217.82 1026.19 L2217.82 996.209 M2215.83 989.588 L2225.38 989.588 L2225.38 1026.19 L2233.39 1026.19 L2233.39 1032.51 L2225.38 1032.51 L2225.38 1045.75 L2217.82 1045.75 L2217.82 1032.51 L2192.47 1032.51 L2192.47 1025.17 L2215.83 989.588 Z" fill="#000000" fill-rule="nonzero" fill-opacity="1" /><path clip-path="url(#clip780)" d="M2272.7 1010.01 L2272.7 987.219 L2279.62 987.219 L2279.62 1045.75 L2272.7 1045.75 L2272.7 1039.43 Q2270.52 1043.19 2267.17 1045.03 Q2263.86 1046.84 2259.2 1046.84 Q2251.56 1046.84 2246.75 1040.75 Q2241.97 1034.65 2241.97 1024.72 Q2241.97 1014.79 2246.75 1008.7 Q2251.56 1002.6 2259.2 1002.6 Q2263.86 1002.6 2267.17 1004.45 Q2270.52 1006.25 2272.7 1010.01 M2249.12 1024.72 Q2249.12 1032.36 2252.24 1036.72 Q2255.4 1041.05 2260.89 1041.05 Q2266.38 1041.05 2269.54 1036.72 Q2272.7 1032.36 2272.7 1024.72 Q2272.7 1017.09 2269.54 1012.76 Q2266.38 1008.4 2260.89 1008.4 Q2255.4 1008.4 2252.24 1012.76 Q2249.12 1017.09 2249.12 1024.72 Z" fill="#000000" fill-rule="nonzero" fill-opacity="1" /><path clip-path="url(#clip780)" d="M2328.9 1003.62 L2313.66 1024.12 L2329.69 1045.75 L2321.52 1045.75 L2309.26 1029.2 L2297 1045.75 L2288.84 1045.75 L2305.2 1023.71 L2290.23 1003.62 L2298.39 1003.62 L2309.56 1018.63 L2320.73 1003.62 L2328.9 1003.62 Z" fill="#000000" fill-rule="nonzero" fill-opacity="1" /></svg>
